<svg xmlns="http://www.w3.org/2000/svg" viewBox="0 0 16 16"><defs><style>.a{fill:#fff;}.b{fill:#5683c3;}</style></defs><path class="a" d="M2.53,8.28a6,6,0,1,1,6,6,6,6,0,0,1-6-6"/><path class="b" d="M5.06,4.59c-.13-.36.67-.33,1-.08a1,1,0,0,0,1.17.08A1,1,0,0,0,7.5,3.23a1,1,0,0,0-.62-.43.92.92,0,0,0-.74.13.9.9,0,0,0-.36.39.69.69,0,0,1-.92.31c-.34-.17.41-2.4,2.32-2.16a2.08,2.08,0,0,1,1.47,1A2.34,2.34,0,0,1,9,4.28,1.82,1.82,0,0,1,7.86,5.72a2.14,2.14,0,0,1-2.8-1.13"/><path class="b" d="M12.92,7.64c-1.71-.33-7.54-.51-11.83,3.3-.28.25-.27-.7,0-1A13.59,13.59,0,0,1,7.35,6.51a13.66,13.66,0,0,1,7.16,0,.68.68,0,0,1,.46.86c-.11.36-.48,1-.84,1.06-.59.16-.43-.69-1.21-.84"/><path class="b" d="M3.92,13.54H3.86C3.5,13.42,4.79,9,7.45,8.32c1.83-.46,3.56.94,4.44,1.61.41.31.83.09,1.11.35a.68.68,0,0,1,.05,1,2,2,0,0,1-1.83.43.61.61,0,0,1-.33-.19l-.23-.23C9.57,10.12,8.78,9.4,7.79,9.65a5.58,5.58,0,0,0-3.09,3.4.68.68,0,0,1-.78.49"/></svg>