<svg xmlns="http://www.w3.org/2000/svg" viewBox="0 0 142.55 137.92"><defs><style>.a{fill:#d7edde;}.b{fill:#e44e56;}.c{fill:#5683c3;}.d{fill:#58a878;}.e{fill:#e88024;}</style></defs><path class="a" d="M26.36,62.63a44.51,44.51,0,1,1,44.51,44.51A44.5,44.5,0,0,1,26.36,62.63"/><path class="b" d="M25.39,15.59c-1-1,1.8-2.1,3.14-1.7a3.61,3.61,0,0,0,4.06-1.47,3.57,3.57,0,0,0,.55-2.73,3.65,3.65,0,0,0-7.22.55,2.51,2.51,0,0,1-2.62,2.41C21.91,12.6,21.07,4,27.88,1.87a7.78,7.78,0,0,1,6.52,1.3,8.63,8.63,0,0,1,3.69,5.54c.45,2.27.26,4.91-1.53,6.51-2.38,2.15-7.3,4.3-11.17.37"/><path class="b" d="M56.51,14.11c-6.25,1.47-26.21,9.6-35,28.89-.58,1.27-2-2-1.47-3.25a50.23,50.23,0,0,1,16-21.1A50.28,50.28,0,0,1,60.3,8.09a2.52,2.52,0,0,1,2.82,2.2c.17,1.38-.16,4-1.25,4.87-1.75,1.42-2.49-1.72-5.36-1.05"/><path class="b" d="M35,47.55l-.22,0c-1.38.19-3.65-16.68,4.33-23,5.49-4.32,13.43-2.17,17.4-1.23,1.85.44,3-.93,4.29-.49a2.53,2.53,0,0,1,1.61,3.19c-1.06,3.25-5.09,4.09-5.54,4.18a2.52,2.52,0,0,1-1.41-.13L54.3,29.7c-5.39-2.19-9.14-3.44-12.11-1.1-3.79,3-6,11.27-5.31,16.13A2.54,2.54,0,0,1,35,47.55"/><path class="c" d="M12.28,91.34C11,92,10.85,89,11.64,87.83a3.65,3.65,0,0,0-2.57-5.69A3.66,3.66,0,0,0,5,85.33,3.63,3.63,0,0,0,5.77,88a3.56,3.56,0,0,0,1.59,1.17,2.51,2.51,0,0,1,1.49,3.24c-.48,1.31-9-.57-8.85-7.69a7.76,7.76,0,0,1,3.26-5.8,8.59,8.59,0,0,1,6.4-1.8c2.31.28,4.75,1.27,5.73,3.47,1.3,2.92,1.83,8.28-3.11,10.74"/><path class="c" d="M20.5,61.28c-.54,6.4,1,27.9,16.66,42.21,1,.94-2.46,1.26-3.55.39A50.17,50.17,0,0,1,18.49,82.16,50,50,0,0,1,16,55.82a2.51,2.51,0,0,1,2.95-2c1.37.26,3.75,1.38,4.25,2.69.81,2.1-2.41,1.84-2.65,4.77"/><path class="c" d="M45.64,92.11l0,.23c-.24,1.37-17-1.69-20.5-11.22-2.41-6.56,2.09-13.44,4.2-16.92,1-1.63,0-3.12.87-4.24a2.52,2.52,0,0,1,3.53-.54c2.76,2,2.32,6.1,2.26,6.56a2.46,2.46,0,0,1-.56,1.29l-.78.93c-3.73,4.45-6.08,7.63-4.78,11.17,1.67,4.54,8.86,9.21,13.7,10a2.53,2.53,0,0,1,2.09,2.69"/><path class="d" d="M79.36,127.84c.21,1.38-2.69.63-3.54-.47a3.64,3.64,0,0,0-6.31,3.48A3.66,3.66,0,0,0,74.19,133a3.62,3.62,0,0,0,1.59-1.16,2.53,2.53,0,0,1,3.55-.41c1.09.87-3.32,8.35-10,6a7.75,7.75,0,0,1-4.51-4.89,8.6,8.6,0,0,1,.27-6.64c1-2.11,2.67-4.13,5.06-4.38,3.19-.33,8.45.82,9.26,6.28"/><path class="d" d="M53.31,110.73c5.92,2.5,26.86,7.65,45.3-2.8,1.21-.68.44,2.73-.73,3.5a50.27,50.27,0,0,1-25.33,7.67,50.13,50.13,0,0,1-25.84-5.72,2.53,2.53,0,0,1-1-3.43c.67-1.22,2.48-3.14,3.87-3.21,2.26-.12,1,2.85,3.72,4"/><path class="d" d="M90.41,96.36l.2.09c1.23.66-6.86,15.64-17,16-7,.27-12.13-6.14-14.79-9.23-1.24-1.44-3-1-3.76-2.13a2.52,2.52,0,0,1,.58-3.53c2.76-2,6.52-.31,6.94-.12a2.5,2.5,0,0,1,1,.94l.64,1c3.08,4.93,5.38,8.15,9.15,8,4.83-.19,11.49-5.59,13.79-9.93a2.52,2.52,0,0,1,3.21-1.15"/><path class="e" d="M134.94,75.05c1.37.23-.23,2.75-1.54,3.22a3.65,3.65,0,1,0,4.85,3.3,3.55,3.55,0,0,0-.6-1.88,2.53,2.53,0,0,1,.7-3.5c1.16-.77,6.92,5.74,2.64,11.42a7.79,7.79,0,0,1-6.05,2.78,8.63,8.63,0,0,1-6.24-2.31c-1.7-1.57-3.09-3.82-2.59-6.17.66-3.13,3.38-7.77,8.83-6.86"/><path class="e" d="M110.62,94.54c4.2-4.86,15.57-23.18,11.33-43.94-.28-1.37,2.73.42,3.1,1.76a50.13,50.13,0,0,1-.53,26.47,50.19,50.19,0,0,1-13.43,22.8,2.51,2.51,0,0,1-3.56-.12c-1-1-2.22-3.32-1.86-4.67.58-2.18,3-.07,5-2.3"/><path class="e" d="M108.41,54.82l.15-.17c1-1,12.75,11.35,10,21.13C116.65,82.5,109,85.42,105.2,87c-1.75.74-1.86,2.5-3.19,2.93a2.53,2.53,0,0,1-3.18-1.64c-1-3.25,1.72-6.3,2-6.64a2.46,2.46,0,0,1,1.21-.72l1.17-.29c5.64-1.4,9.41-2.6,10.44-6.23,1.32-4.64-1.76-12.65-5.18-16.18a2.51,2.51,0,0,1-.1-3.4"/><path class="c" d="M101,5.14c.64-1.23,2.55,1.07,2.58,2.47a3.65,3.65,0,1,0,6.83-1.87A3.66,3.66,0,0,0,106.23,4a2.52,2.52,0,0,1-3.11-1.75c-.38-1.34,7.59-4.81,11.68,1a7.78,7.78,0,0,1,.77,6.61,8.65,8.65,0,0,1-4.12,5.22c-2,1.14-4.59,1.77-6.67.56C102,14.06,98.43,10,101,5.14"/><path class="c" d="M112,34.29c-3.33-5.49-17.24-22-38.29-24.35-1.39-.16,1.25-2.47,2.64-2.4a50.19,50.19,0,0,1,25,8.68A50.19,50.19,0,0,1,118.89,36a2.53,2.53,0,0,1-1.21,3.36c-1.26.59-3.85,1.08-5,.32-1.9-1.23.86-2.9-.66-5.42"/><path class="c" d="M73.54,24.12a1.28,1.28,0,0,1-.11-.2c-.62-1.25,14.74-8.61,23.17-3,5.81,3.88,6.21,12.09,6.55,16.15.16,1.9,1.8,2.54,1.8,3.94a2.54,2.54,0,0,1-2.55,2.52c-3.41,0-5.46-3.58-5.68-4a2.46,2.46,0,0,1-.31-1.38L96.49,37c.41-5.8.44-9.75-2.69-11.85-4-2.69-12.58-2.24-17-.07a2.52,2.52,0,0,1-3.27-1"/></svg>