<svg xmlns="http://www.w3.org/2000/svg" viewBox="0 0 436.18 287.37"><defs><style>.a{fill:#d7edde;}.b{fill:#e44e56;}.c{fill:#5683c3;}.d{fill:#58a878;}.e{fill:#e88024;}.f{fill:none;}</style></defs><path class="a" d="M62.83,107.07a44.51,44.51,0,1,1,44.51,44.51,44.5,44.5,0,0,1-44.51-44.51"/><path class="b" d="M61.86,60c-1-1,1.8-2.09,3.13-1.69a3.64,3.64,0,1,0-2.6-3.65,2.52,2.52,0,0,1-2.63,2.41c-1.39-.05-2.22-8.71,4.59-10.79a7.82,7.82,0,0,1,6.52,1.31,8.63,8.63,0,0,1,3.69,5.54c.45,2.27.26,4.9-1.53,6.51-2.38,2.15-7.3,4.3-11.17.36"/><path class="b" d="M93,58.55C86.73,60,66.76,68.15,58,87.44c-.57,1.27-1.95-2-1.46-3.25A52.24,52.24,0,0,1,96.77,52.53a2.53,2.53,0,0,1,2.82,2.19c.17,1.39-.16,4-1.25,4.88C96.59,61,95.85,57.88,93,58.55"/><path class="b" d="M71.43,92l-.23,0c-1.38.19-3.64-16.68,4.34-23C81,64.74,89,66.9,92.93,67.84c1.86.43,3-.93,4.3-.49a2.53,2.53,0,0,1,1.61,3.19c-1.07,3.25-5.09,4.09-5.54,4.18a2.6,2.6,0,0,1-1.41-.13l-1.12-.46C85.38,72,81.63,70.7,78.66,73c-3.79,3-6,11.26-5.32,16.13A2.53,2.53,0,0,1,71.43,92"/><path class="c" d="M48.75,135.78c-1.25.62-1.44-2.36-.64-3.51A3.65,3.65,0,0,0,48,128a3.64,3.64,0,1,0-5.73,4.5,3.64,3.64,0,0,0,1.59,1.17,2.51,2.51,0,0,1,1.48,3.24c-.48,1.31-9-.58-8.84-7.69a7.76,7.76,0,0,1,3.26-5.8,8.59,8.59,0,0,1,6.4-1.8c2.31.27,4.75,1.27,5.73,3.46,1.3,2.93,1.83,8.28-3.11,10.75"/><path class="c" d="M57,105.72c-.54,6.4,1,27.9,16.66,42.21,1,.94-2.46,1.26-3.55.39a52.29,52.29,0,0,1-17.67-48.06,2.53,2.53,0,0,1,3-2c1.37.27,3.75,1.39,4.25,2.7.81,2.1-2.41,1.83-2.65,4.77"/><path class="c" d="M82.1,136.55a.91.91,0,0,1,0,.23c-.23,1.37-17-1.69-20.49-11.22-2.41-6.56,2.09-13.44,4.2-16.92,1-1.63,0-3.12.86-4.24a2.53,2.53,0,0,1,3.54-.54c2.76,2,2.32,6.1,2.26,6.56a2.5,2.5,0,0,1-.56,1.29l-.78.93c-3.73,4.45-6.08,7.63-4.78,11.17C68,128.35,75.18,133,80,133.86a2.51,2.51,0,0,1,2.08,2.69"/><path class="d" d="M115.83,172.28c.21,1.38-2.69.63-3.54-.47a3.64,3.64,0,0,0-6.31,3.47,3.56,3.56,0,0,0,1.89,2.05,3.65,3.65,0,0,0,2.79.12,3.76,3.76,0,0,0,1.59-1.16,2.53,2.53,0,0,1,3.55-.41c1.09.86-3.32,8.35-10,6a7.75,7.75,0,0,1-4.51-4.89,8.55,8.55,0,0,1,.27-6.64c1-2.11,2.67-4.13,5.06-4.38,3.19-.33,8.44.82,9.26,6.28"/><path class="d" d="M89.78,155.17c5.92,2.49,26.86,7.65,45.29-2.8,1.22-.69.44,2.73-.72,3.5a52.27,52.27,0,0,1-51.17,1.95,2.52,2.52,0,0,1-1-3.43c.67-1.22,2.47-3.14,3.87-3.21,2.26-.12,1,2.85,3.72,4"/><path class="d" d="M126.87,140.8l.21.09c1.23.66-6.86,15.64-17,16-7,.27-12.13-6.14-14.79-9.23-1.24-1.44-3-1-3.77-2.13a2.54,2.54,0,0,1,.58-3.53c2.77-2,6.52-.32,6.94-.12a2.51,2.51,0,0,1,1.06.93l.64,1c3.08,4.93,5.38,8.14,9.15,8,4.82-.18,11.49-5.58,13.79-9.93a2.52,2.52,0,0,1,3.2-1.14"/><path class="e" d="M171.41,119.49c1.37.23-.23,2.75-1.55,3.21a3.64,3.64,0,0,0-2.42,3.58,3.56,3.56,0,0,0,1.16,2.54,3.67,3.67,0,0,0,2.62,1,3.66,3.66,0,0,0,3.5-3.79,3.54,3.54,0,0,0-.6-1.87,2.51,2.51,0,0,1,.7-3.5c1.16-.77,6.92,5.74,2.63,11.42a7.75,7.75,0,0,1-6,2.78,8.62,8.62,0,0,1-6.24-2.31c-1.7-1.58-3.09-3.82-2.59-6.17.66-3.13,3.38-7.77,8.83-6.86"/><path class="e" d="M147.09,139c4.2-4.87,15.57-23.18,11.33-43.95-.28-1.36,2.73.43,3.1,1.77a52.25,52.25,0,0,1-14,49.27A2.52,2.52,0,0,1,144,146c-1-1-2.23-3.32-1.86-4.67.58-2.18,3-.08,5-2.3"/><path class="e" d="M144.88,99.25l.15-.16c1-1,12.75,11.35,10,21.13-1.91,6.72-9.59,9.64-13.35,11.21-1.76.74-1.86,2.5-3.19,2.93a2.54,2.54,0,0,1-3.18-1.64c-1-3.25,1.72-6.3,2-6.64a2.54,2.54,0,0,1,1.22-.72l1.17-.29c5.64-1.4,9.41-2.6,10.44-6.23,1.32-4.65-1.76-12.65-5.18-16.18a2.52,2.52,0,0,1-.1-3.41"/><path class="c" d="M137.44,49.58c.65-1.23,2.55,1.07,2.59,2.46a3.64,3.64,0,0,0,5.42,3.09A3.59,3.59,0,0,0,147.18,53a3.64,3.64,0,0,0-4.48-4.51,2.53,2.53,0,0,1-3.11-1.75c-.38-1.34,7.59-4.81,11.67,1a7.77,7.77,0,0,1,.78,6.61,8.63,8.63,0,0,1-4.13,5.22c-2,1.13-4.58,1.76-6.66.56-2.78-1.6-6.35-5.62-3.81-10.52"/><path class="c" d="M148.47,78.73c-3.33-5.49-17.24-22-38.29-24.35-1.39-.16,1.24-2.47,2.64-2.41a52.3,52.3,0,0,1,42.54,28.5,2.53,2.53,0,0,1-1.21,3.36c-1.27.59-3.85,1.08-5,.32-1.9-1.23.86-2.9-.66-5.42"/><path class="c" d="M110,68.56a2,2,0,0,1-.11-.2c-.62-1.25,14.73-8.62,23.17-3,5.81,3.89,6.21,12.1,6.55,16.16.15,1.9,1.8,2.54,1.79,3.94A2.53,2.53,0,0,1,138.87,88c-3.41,0-5.46-3.58-5.69-4a2.49,2.49,0,0,1-.3-1.37l.08-1.21c.41-5.8.44-9.75-2.7-11.85-4-2.69-12.57-2.24-17-.07a2.52,2.52,0,0,1-3.26-1"/><path class="c" d="M158.12,192.86l-.26-2.82,5.37-1.31-3.18,2,1.2-2.19c.38-.7.73-1.41,1.05-2.15s.6-1.46.88-2.19l9.4-28.45,3.86-.52,10.65,29.81a22.49,22.49,0,0,0,1.12,2.74l1.23,2.48-3-1.72,5.64.93-.26,3.08h-5c-.42,0-1.12,0-2.09.06l-3.16.1-3.1.11-.16-2.82,6-1.57-2,2.72c-.21-1.54-.42-2.82-.63-3.87a21.61,21.61,0,0,0-.89-3.13l-7.31-22.13h1.41l-7.62,24.06a14,14,0,0,0-.44,2.25c-.09.76-.15,1.58-.18,2.45l-2.25-2,5.95.73-.26,3.08h-4.8c-.42,0-1.05,0-1.88.06l-2.66.1Zm9.19-11.28v-3.24h14.25v3.24Z"/><path class="c" d="M195.91,192.86l-.26-3,6.16-1.2-2.71,2.4c.1-.38.21-1,.33-1.75s.24-1.59.34-2.42a15.77,15.77,0,0,0,.16-1.94V174.69a17.12,17.12,0,0,0-.16-2q-.15-1.31-.36-2.58c-.14-.85-.24-1.47-.31-1.85l2.66,2.82-6.27-1,.32-3.18h7.36l1,.94,1,8.51-2-2.25a28.24,28.24,0,0,1,1.33-2.63,12.91,12.91,0,0,1,1.83-2.48A8,8,0,0,1,209,167a8.61,8.61,0,0,1,3.63-.7,13.69,13.69,0,0,1,1.9.13,15.77,15.77,0,0,1,1.91.39l-.63,9.24-3.34-.16v-2.76a6.11,6.11,0,0,0-.16-1q-.15-.75-.39-1.59c-.16-.56-.29-1-.39-1.31l2.09,1.26-1,0-1,0a5.63,5.63,0,0,0-4.67,2.07,9,9,0,0,0-1.64,5.71v5.12c0,1.53.07,3,.21,4.43s.26,2.51.36,3.24l-2.61-2.19,7.26.57-.32,3.13h-8.35c-.28,0-.76,0-1.46.06l-2.27.1Z"/><path class="c" d="M220.76,192.86l-.26-3,6.16-1.2-2.72,2.4a15.06,15.06,0,0,0,.34-1.75c.12-.78.24-1.59.34-2.42a15.77,15.77,0,0,0,.16-1.94V174.69a17.12,17.12,0,0,0-.16-2c-.1-.87-.23-1.73-.36-2.58s-.25-1.47-.32-1.85L226.6,171l-6.26-1,.31-3.18H228l1,.94,1.09,9v6.63c0,1.53.07,3,.21,4.43s.26,2.51.37,3.24l-2.61-2.19,6.21.57-.31,3.13h-7.31c-.28,0-.77,0-1.46.06l-2.27.1Zm16.08,0-.26-3,5.58-1.25-2.45,1.88c.07-.49.15-1.1.23-1.83s.17-1.44.24-2.14.1-1.22.1-1.57v-7.51a17.19,17.19,0,0,0-.36-3.61,5.79,5.79,0,0,0-1.28-2.68,3.36,3.36,0,0,0-2.64-1,5,5,0,0,0-4.17,2.3,9.92,9.92,0,0,0-1.68,6l-1.82-5a13.55,13.55,0,0,1,2.16-3.81,9.66,9.66,0,0,1,3.08-2.51,8.41,8.41,0,0,1,3.84-.89,8.09,8.09,0,0,1,4.91,1.33,7.06,7.06,0,0,1,2.5,3.76,20.27,20.27,0,0,1,.73,5.82v6.27c0,.87,0,1.79.13,2.76s.18,1.85.27,2.61.14,1.29.18,1.57l-2.51-1.46,6.21.57-.31,3.13h-7.05l-1.25.06-2.22.1Zm15.45,0-.26-3,5.63-1.25-2.5,1.88a17.8,17.8,0,0,0,.26-1.83c.07-.73.14-1.44.21-2.14s.1-1.22.1-1.57v-7.51a17.92,17.92,0,0,0-.34-3.61,5.42,5.42,0,0,0-1.27-2.68,3.46,3.46,0,0,0-2.67-1,5,5,0,0,0-4.15,2.24,10.41,10.41,0,0,0-1.75,6l-1.72-5a12,12,0,0,1,3.6-5.22,8.55,8.55,0,0,1,5.48-1.88,8,8,0,0,1,4.86,1.33,7.22,7.22,0,0,1,2.53,3.76,19.85,19.85,0,0,1,.76,5.82v6.27c0,.87,0,1.79.1,2.76s.16,1.85.26,2.61.18,1.29.21,1.57l-2.56-1.46,6.22.57-.32,3.13h-7l-1.26.06-2.22.1Z"/><path class="c" d="M280.27,193.22a12.61,12.61,0,0,1-6.66-1.67,10.74,10.74,0,0,1-4.18-4.7,16.32,16.32,0,0,1-1.43-7,17.16,17.16,0,0,1,1.38-7.16,11,11,0,0,1,4-4.72,11.55,11.55,0,0,1,6.42-1.7,10.55,10.55,0,0,1,5.95,1.54,8.91,8.91,0,0,1,3.36,4.31,16.81,16.81,0,0,1,1,6.58l-.94,1.82h-16v-3l13.36-.89L284,179.13c0-.56.08-1.11.13-1.65a14.77,14.77,0,0,0,.08-1.64,8.43,8.43,0,0,0-1.15-4.65,3.93,3.93,0,0,0-3.55-1.77,4.37,4.37,0,0,0-2.71.83,5.23,5.23,0,0,0-1.67,2.3,14,14,0,0,0-.81,3.24,27.2,27.2,0,0,0-.23,3.65,18,18,0,0,0,.39,3.86,9.64,9.64,0,0,0,1.25,3.13,6.28,6.28,0,0,0,2.14,2.12,6,6,0,0,0,3.11.76,12.89,12.89,0,0,0,4.3-.71,17.44,17.44,0,0,0,3.06-1.33l1.51,2.61a7.45,7.45,0,0,1-1.1.84,18.7,18.7,0,0,1-2,1.12,13.65,13.65,0,0,1-2.82,1A15.27,15.27,0,0,1,280.27,193.22Z"/><path class="c" d="M295,192.86l-.26-3,6.16-1.2-2.72,2.4a15.06,15.06,0,0,0,.34-1.75c.12-.78.24-1.59.34-2.42A18.06,18.06,0,0,0,299,185V174.69a19.56,19.56,0,0,0-.16-2c-.1-.87-.23-1.73-.37-2.58s-.24-1.47-.31-1.85l2.66,2.82-6.26-1,.31-3.18h7.36l1.05.94,1.09,9v6.63c0,1.53.07,3,.21,4.43s.26,2.51.37,3.24l-2.61-2.19,6.21.57-.31,3.13h-7.31c-.28,0-.77,0-1.46.06l-2.27.1Zm16.07,0-.26-3,5.59-1.25-2.45,1.88c.07-.49.14-1.1.23-1.83s.17-1.44.24-2.14.1-1.22.1-1.57v-7.51a16.54,16.54,0,0,0-.37-3.61,5.78,5.78,0,0,0-1.27-2.68,3.36,3.36,0,0,0-2.64-1,5,5,0,0,0-4.18,2.3,10,10,0,0,0-1.67,6l-1.82-5a13.31,13.31,0,0,1,2.16-3.81,9.66,9.66,0,0,1,3.08-2.51,8.41,8.41,0,0,1,3.84-.89,8.09,8.09,0,0,1,4.91,1.33,7.12,7.12,0,0,1,2.5,3.76,20.27,20.27,0,0,1,.73,5.82v6.27c0,.87.05,1.79.13,2.76s.18,1.85.26,2.61.15,1.29.19,1.57l-2.51-1.46,6.21.57-.31,3.13H316.7l-1.25.06-2.22.1Zm15.46,0-.26-3,5.63-1.25-2.5,1.88a17.8,17.8,0,0,0,.26-1.83c.07-.73.14-1.44.21-2.14s.1-1.22.1-1.57v-7.51a17.92,17.92,0,0,0-.34-3.61,5.43,5.43,0,0,0-1.28-2.68,3.42,3.42,0,0,0-2.66-1,5,5,0,0,0-4.15,2.24,10.34,10.34,0,0,0-1.75,6l-1.72-5a11.89,11.89,0,0,1,3.6-5.22,8.53,8.53,0,0,1,5.48-1.88,8,8,0,0,1,4.86,1.33,7.28,7.28,0,0,1,2.53,3.76,19.85,19.85,0,0,1,.76,5.82v6.27c0,.87,0,1.79.1,2.76s.16,1.85.26,2.61.17,1.29.21,1.57l-2.56-1.46,6.21.57-.31,3.13h-7.05l-1.25.06-2.22.1Z"/><path class="c" d="M354.55,193.22a12.78,12.78,0,0,1-6.76-1.67,10.56,10.56,0,0,1-4.15-4.7,16.63,16.63,0,0,1-1.41-7.1,16.83,16.83,0,0,1,1.41-7.15,10.61,10.61,0,0,1,4.15-4.7,12.78,12.78,0,0,1,6.76-1.67q6,0,9.16,3.63t3.1,9.89a16.94,16.94,0,0,1-1.38,7.1,10.38,10.38,0,0,1-4.12,4.7A12.81,12.81,0,0,1,354.55,193.22Zm0-3.44a5.15,5.15,0,0,0,3.73-1.34,7.48,7.48,0,0,0,2-3.6,19.91,19.91,0,0,0,.6-5.09,20.21,20.21,0,0,0-.6-5.14,7.58,7.58,0,0,0-2-3.6,5.9,5.9,0,0,0-7.46,0,7.49,7.49,0,0,0-2,3.58,22.19,22.19,0,0,0,0,10.25,7.42,7.42,0,0,0,2,3.6A5.13,5.13,0,0,0,354.55,189.78Z"/><path class="c" d="M381.07,193.12a17.73,17.73,0,0,1-4.94-.63c-1.44-.42-2.65-.8-3.63-1.15l.27-7.51h3.28V186a4.75,4.75,0,0,0,.21,1.07,11.53,11.53,0,0,0,.58,1.59c.24.56.47,1,.68,1.46l-1.78-2.3a6.76,6.76,0,0,0,2.43,1.55,8.47,8.47,0,0,0,3,.54,4.94,4.94,0,0,0,2.92-.81,2.87,2.87,0,0,0,1.15-2.53,2.93,2.93,0,0,0-1.49-2.61,32,32,0,0,0-3.52-1.88l-2.64-1.33a14.64,14.64,0,0,1-2.53-1.64,7.54,7.54,0,0,1-1.85-2.27,6.67,6.67,0,0,1-.71-3.16,6.59,6.59,0,0,1,2.48-5.56,10,10,0,0,1,6.24-1.91,28.38,28.38,0,0,1,4.13.29,32.27,32.27,0,0,1,3.7.76l-.31,7.72-3.18-.21v-2a4.54,4.54,0,0,0-.32-1.12c-.21-.58-.43-1.18-.68-1.8s-.43-1.1-.57-1.41l2.09,2.35a16.16,16.16,0,0,0-2.25-1,7.76,7.76,0,0,0-2.61-.37,4.57,4.57,0,0,0-2.84.78,2.56,2.56,0,0,0-1,2.14,2.81,2.81,0,0,0,1.51,2.46,29.13,29.13,0,0,0,3.55,1.82c.91.42,1.83.87,2.77,1.34a12.82,12.82,0,0,1,2.58,1.67,7.54,7.54,0,0,1,1.91,2.32,6.81,6.81,0,0,1,.73,3.29q0,4.07-2.56,6A11.21,11.21,0,0,1,381.07,193.12Z"/><path class="c" d="M227.76,237.94,227.5,235l6.21-1.2-2.56,2.35c.07-.38.17-1,.29-1.78s.23-1.6.34-2.4a16,16,0,0,0,.15-1.82V208.4a13.22,13.22,0,0,0-.13-1.57c-.08-.69-.18-1.45-.28-2.27s-.23-1.56-.37-2.22l2.56,2.4-6.11-1,.26-3.08c.63,0,1.34.07,2.14.1l2.3.11c.73,0,1.27,0,1.62,0H246l1.51,0c.69,0,1.44,0,2.24-.1l2.2-.13,1,.94.36,7.1-3.18.26-.52-2.71a5,5,0,0,0-.68-1.57,20.84,20.84,0,0,0-1.2-1.88l2.19,1.72q-.88-.1-2.4-.21c-1-.07-2-.1-3-.1h-8.77l2.35-1.36c-.07.8-.15,1.67-.23,2.61s-.16,1.82-.21,2.64-.08,1.45-.08,1.9V228.6c0,.8,0,1.71.1,2.71s.16,2,.26,2.88.2,1.6.27,2.08l-2.14-2h9.13a18.8,18.8,0,0,0,3.13-.26c1-.18,1.73-.31,2.14-.42l-2,1.83a22.51,22.51,0,0,0,1.41-2,6.7,6.7,0,0,0,.83-1.64l.73-3.4,3.08.26-.78,8.25-1,.94-2.17-.1c-.78,0-1.51-.06-2.19-.08l-1.59,0H235l-1.93,0c-.83,0-1.72,0-2.66.08S228.59,237.87,227.76,237.94Zm18.79-13.88-.73-5.33,2.14,2.09c-.45-.07-1-.14-1.78-.21L244,220.4c-.75-.07-1.37-.1-1.86-.1h-6.42v-3.24h7.47a14.8,14.8,0,0,0,2.35-.23l1.93-.34-1.62,2.14.73-5.48,2.56.26v4.38q0,3,.15,6Z"/><path class="c" d="M269.47,238.2a9,9,0,0,1-7.55-3.52q-2.73-3.52-2.74-9.79a16.62,16.62,0,0,1,1.44-7.17,11,11,0,0,1,4-4.73,11.31,11.31,0,0,1,6.22-1.67,31.8,31.8,0,0,1,3.39.18c1.11.13,2.32.32,3.63.58s2.81.63,4.51,1.12L280.27,217a28.29,28.29,0,0,0-4.67-1.41,21.52,21.52,0,0,0-4.2-.42,5.21,5.21,0,0,0-4.62,2.51,12.75,12.75,0,0,0-1.65,7,13.55,13.55,0,0,0,1.46,6.89,4.54,4.54,0,0,0,4.08,2.46,5.11,5.11,0,0,0,4.3-2,9.34,9.34,0,0,0,1.65-5.58l1.09,6.21a10.42,10.42,0,0,1-2.08,2.9,9.48,9.48,0,0,1-2.93,2A8.35,8.35,0,0,1,269.47,238.2Zm2.14,11.65-.26-2.82,7.09-1.2-2.66,2.24c.07-.38.18-1,.32-1.75s.26-1.58.36-2.4a17.29,17.29,0,0,0,.16-1.9V220.4c0-.73,0-1.58-.08-2.55a25.61,25.61,0,0,0-.29-2.77l6.16-1.88c-.07.56-.14,1.31-.21,2.27s-.13,1.92-.18,2.9-.08,1.83-.08,2.56v19.52c0,1.57.07,3.06.21,4.49s.26,2.47.37,3.13l-2.61-2,5.58.57-.26,2.92h-6.68c-.31,0-.9,0-1.75.06l-2.74.1C273.08,249.78,272.27,249.81,271.61,249.85Z"/><path class="c" d="M298.75,238.1a9.13,9.13,0,0,1-5.3-1.33,6.94,6.94,0,0,1-2.66-3.81,19.84,19.84,0,0,1-.76-5.82v-7.36a13.29,13.29,0,0,0-.13-1.62c-.09-.7-.19-1.45-.31-2.27s-.24-1.56-.34-2.22l2.56,2.45-5.54-1,.32-3.18h8.14l1,.93q-.11,1.26-.21,2.88c-.06,1.07-.12,2.12-.15,3.13s-.05,1.84-.05,2.5V228a8.48,8.48,0,0,0,1,4.33,3.91,3.91,0,0,0,3.68,1.72,5.13,5.13,0,0,0,3.19-1,6.79,6.79,0,0,0,2.09-2.82,10.51,10.51,0,0,0,.73-4v-6.47c0-.39,0-.92-.11-1.59s-.15-1.42-.26-2.22-.21-1.53-.31-2.2l2.5,2.35-6.1-1,.31-3.18h8.67l1,.93c0,.84-.09,1.8-.16,2.88s-.12,2.12-.15,3.13-.06,1.84-.06,2.5v7.15a34.13,34.13,0,0,0,.24,4q.24,2,.39,4.05L309.5,234l5.85.57-.31,3.13h-7.78l-.94-6.42,1,1.25a15.61,15.61,0,0,1-1.67,2.43,9.62,9.62,0,0,1-2.69,2.22A8.34,8.34,0,0,1,298.75,238.1Z"/><path class="c" d="M318.85,237.94l-.26-3,6.16-1.2-2.72,2.4a15.51,15.51,0,0,0,.34-1.75c.12-.78.23-1.59.34-2.43a17.92,17.92,0,0,0,.16-1.93V219.78c0-.49-.05-1.14-.13-2s-.2-1.66-.34-2.53-.26-1.6-.37-2.19l2.66,3-6.26-1,.31-3.18h8.82l1.05.93c0,.63-.09,1.45-.16,2.46s-.12,2.05-.16,3.13-.05,2.05-.05,2.92v7.15q0,2.31.21,4.44c.14,1.43.26,2.51.37,3.24L326.21,234l6.21.57-.32,3.13h-7.3l-1.46,0-2.28.11Zm5.69-30.8a2.9,2.9,0,0,1-2.35-1,3.72,3.72,0,0,1-.84-2.5,3.81,3.81,0,0,1,.84-2.56,3,3,0,0,1,2.4-1,3,3,0,0,1,2.35.91,3.82,3.82,0,0,1,.83,2.64,3.76,3.76,0,0,1-.83,2.53A3,3,0,0,1,324.54,207.14Z"/><path class="c" d="M335.24,249.85,335,247l5.53-1.2-2.72,2.24c.07-.38.17-1,.29-1.75s.24-1.59.37-2.43a14.55,14.55,0,0,0,.18-1.93V219.78a15.92,15.92,0,0,0-.18-2c-.13-.87-.26-1.73-.42-2.58s-.27-1.47-.34-1.86l2.77,2.82-6.32-1,.37-3.18h7.36l1,.93.68,5.85-.94-.78a9.66,9.66,0,0,1,1.9-3.45,9.44,9.44,0,0,1,3-2.29,7.82,7.82,0,0,1,3.52-.84,9.34,9.34,0,0,1,7.7,3.39q2.74,3.4,2.74,9.5a16.39,16.39,0,0,1-1.56,7.34,11.51,11.51,0,0,1-10.81,6.65,13.11,13.11,0,0,1-2.92-.34,21.8,21.8,0,0,1-3-.91l-.05-4.49a12.63,12.63,0,0,0,2.92,1.46,8.26,8.26,0,0,0,2.66.47,5.82,5.82,0,0,0,5.12-2.48q1.73-2.47,1.72-7.38,0-4.54-1.43-6.81a4.76,4.76,0,0,0-4.31-2.27,5,5,0,0,0-4.26,2.14,9.09,9.09,0,0,0-1.59,5.58V240.4a39.61,39.61,0,0,0,.24,4.43q.23,2.14.39,3.24l-2.61-2,7.2.57-.31,2.92h-8.3c-.28,0-.71,0-1.31.06l-1.93.1Z"/><path class="c" d="M378.46,238.31a12.81,12.81,0,0,1-6.76-1.67,10.56,10.56,0,0,1-4.15-4.7,18.71,18.71,0,0,1,0-14.25,10.61,10.61,0,0,1,4.15-4.7,12.81,12.81,0,0,1,6.76-1.67q6.06,0,9.16,3.63t3.11,9.89a17,17,0,0,1-1.39,7.1,10.38,10.38,0,0,1-4.12,4.7A12.81,12.81,0,0,1,378.46,238.31Zm0-3.45a5.15,5.15,0,0,0,3.73-1.33,7.63,7.63,0,0,0,2-3.6,20.39,20.39,0,0,0,.59-5.09,20.63,20.63,0,0,0-.59-5.14,7.63,7.63,0,0,0-2-3.6,5.9,5.9,0,0,0-7.46,0,7.45,7.45,0,0,0-2,3.57,20.12,20.12,0,0,0-.6,5.17,19.91,19.91,0,0,0,.6,5.09,7.46,7.46,0,0,0,2,3.6A5.13,5.13,0,0,0,378.46,234.86Z"/><path class="c" d="M200.38,150.34l-.19-1.86,4.35-.89L203,149c0-.21.12-.57.21-1.09s.18-1.06.27-1.64a9.77,9.77,0,0,0,.14-1.34v-8.62a12.38,12.38,0,0,0-.1-1.3c-.07-.53-.14-1.08-.23-1.65s-.18-1-.26-1.44l1.52,1.79-4.27-.74.19-2h5.59l.74.7c0,.39-.06.93-.1,1.61s-.07,1.41-.1,2.16,0,1.43,0,2.05v6.29c0,1,0,2.05.11,3.11s.16,1.82.24,2.29l-1.44-1.44,4.38.39-.27,2h-4.93c-.25,0-.63,0-1.12,0l-1.57.07Zm4.12-23.17a2.1,2.1,0,0,1-1.67-.66,2.53,2.53,0,0,1-.58-1.75,2.65,2.65,0,0,1,.58-1.8,2.08,2.08,0,0,1,1.67-.68,2.14,2.14,0,0,1,1.67.64,3.11,3.11,0,0,1,0,3.59A2.11,2.11,0,0,1,204.5,127.17Z"/><path class="c" d="M212.26,150.34l-.19-1.86,4.34-.89L214.86,149c0-.21.12-.57.22-1.09s.18-1.06.27-1.64a9.42,9.42,0,0,0,.13-1.34v-8.62a12.39,12.39,0,0,0-.11-1.38c-.08-.58-.17-1.16-.28-1.74s-.18-1-.23-1.27l1.55,1.79-4.27-.74.2-2h4.81l.74.7.54,5.82-.85-2.25a8.07,8.07,0,0,1,1.49-2.48,6.27,6.27,0,0,1,2.16-1.55,6.53,6.53,0,0,1,2.71-.55,6.62,6.62,0,0,1,4.16,1.11,5.6,5.6,0,0,1,1.9,3.12,20.1,20.1,0,0,1,.5,4.74v4.15c0,1,.05,1.9.14,2.84s.17,1.65.25,2.17l-1.4-1,4.39.39-.27,2h-5l-.85,0-1.54.07-1.49.08-.2-1.86,3.89-.93-1.44.89c.08-.26.16-.58.25-.95s.17-.78.24-1.22a9.76,9.76,0,0,0,.09-1.32v-5.36a16,16,0,0,0-.31-3.24,5.14,5.14,0,0,0-1.2-2.5,3.35,3.35,0,0,0-2.6-1,4.31,4.31,0,0,0-3.71,1.86,7.92,7.92,0,0,0-1.34,4.73v4.31c0,1,0,2.05.12,3.11s.15,1.82.23,2.29l-1.43-1.44,4.38.39-.27,2h-4.93c-.26,0-.63,0-1.12,0l-1.58.07Z"/><path class="c" d="M236.29,150.34l-.2-1.86,4.35-.89L238.89,149c.05-.21.12-.57.21-1.09s.18-1.06.27-1.64a9.77,9.77,0,0,0,.14-1.34v-8.62a12.38,12.38,0,0,0-.1-1.3c-.07-.53-.14-1.08-.23-1.65s-.18-1-.26-1.44l1.52,1.79-4.27-.74.19-2H242l.74.7c0,.39-.06.93-.1,1.61s-.07,1.41-.09,2.16,0,1.43,0,2.05v6.29c0,1,0,2.05.11,3.11s.16,1.82.24,2.29l-1.44-1.44,4.39.39-.28,2h-4.93c-.25,0-.63,0-1.12,0l-1.57.07Zm4.11-23.17a2.1,2.1,0,0,1-1.67-.66,2.53,2.53,0,0,1-.58-1.75,2.65,2.65,0,0,1,.58-1.8,2.08,2.08,0,0,1,1.67-.68,2.14,2.14,0,0,1,1.67.64,3.11,3.11,0,0,1,0,3.59A2.11,2.11,0,0,1,240.4,127.17Z"/><path class="c" d="M257.24,150.54a8.85,8.85,0,0,1-4.91-1.27,7.73,7.73,0,0,1-2.93-3.51,13,13,0,0,1-1-5.16,12.66,12.66,0,0,1,1-5.18,7.75,7.75,0,0,1,3-3.49,9,9,0,0,1,4.93-1.27,10.28,10.28,0,0,1,3,.39c.85.26,1.86.6,3,1l-.39,4.62-2.14-.12v-1.32a4.2,4.2,0,0,0-.21-1c-.14-.48-.28-.93-.41-1.34l1.21,1.24a22.44,22.44,0,0,0-2.08-1,5.58,5.58,0,0,0-2-.41,4.26,4.26,0,0,0-3.16,1.18,7,7,0,0,0-1.73,3,12.67,12.67,0,0,0-.54,3.69,12.4,12.4,0,0,0,.52,3.63,6.26,6.26,0,0,0,1.69,2.81,4.41,4.41,0,0,0,3.14,1.09,9.88,9.88,0,0,0,2.78-.39,19.12,19.12,0,0,0,2.74-1.05l1,1.79a12.24,12.24,0,0,1-3.22,1.57A11.36,11.36,0,0,1,257.24,150.54Z"/><path class="c" d="M266.83,150.34l-.19-1.86,4.34-.89L269.43,149c.05-.21.12-.57.21-1.09s.18-1.06.28-1.64a9.42,9.42,0,0,0,.13-1.34v-8.62a10.14,10.14,0,0,0-.1-1.3c-.06-.53-.14-1.08-.23-1.65s-.17-1-.25-1.44l1.51,1.79-4.27-.74.2-2h5.59l.73.7c0,.39-.05.93-.09,1.61s-.07,1.41-.1,2.16,0,1.43,0,2.05v6.29c0,1,0,2.05.12,3.11s.15,1.82.23,2.29l-1.44-1.44,4.39.39-.27,2H271.1c-.26,0-.64,0-1.13,0l-1.57.07Zm4.11-23.17a2.12,2.12,0,0,1-1.67-.66,2.58,2.58,0,0,1-.58-1.75,2.7,2.7,0,0,1,.58-1.8,2.1,2.1,0,0,1,1.67-.68,2.13,2.13,0,0,1,1.67.64,2.64,2.64,0,0,1,.59,1.84,2.58,2.58,0,0,1-.57,1.75A2.09,2.09,0,0,1,270.94,127.17Z"/><path class="c" d="M284.49,150.54a6,6,0,0,1-4.12-1.34,5,5,0,0,1-.21-6.95,6.89,6.89,0,0,1,3.9-1.77l6.79-1.12v1.9l-6.32,1.2a3.12,3.12,0,0,0-1.83.9,2.37,2.37,0,0,0-.66,1.7,3.31,3.31,0,0,0,.76,2.31,2.74,2.74,0,0,0,2.15.84,5.31,5.31,0,0,0,3.59-1.32,5.1,5.1,0,0,0,1.81-3.26v-5.48a7.53,7.53,0,0,0-.93-4.17,3.15,3.15,0,0,0-2.8-1.38,11,11,0,0,0-1.74.16,11.2,11.2,0,0,0-1.75.43,4.51,4.51,0,0,0-1.24.58l1.2-1.67-.46,2.91,0,1.59-2.25.12-.38-5.16c.77-.21,1.55-.38,2.32-.51s1.56-.22,2.33-.29,1.56-.1,2.33-.1q3.45,0,4.85,1.89c.93,1.25,1.4,3.41,1.4,6.46v4.77a19.37,19.37,0,0,0,.21,3.05c.15.87.27,1.55.37,2l-1.28-1.17,3.81.43-.24,2h-4.85l-.78-4.39.7-.11a4,4,0,0,1-1,2.23,7.58,7.58,0,0,1-2.44,1.9A7.15,7.15,0,0,1,284.49,150.54Z"/><path class="c" d="M305.8,150.73c-1.74,0-2.89-.47-3.48-1.4a7.57,7.57,0,0,1-.87-4V131.71l1.24,1.28h-4.5l-.12-1.55c.34-.13.75-.28,1.25-.45s1-.34,1.49-.52L302,130l-1.32,1.28a5.31,5.31,0,0,0,.53-.83c.22-.4.44-.85.68-1.36s.45-1,.66-1.38.34-.71.42-.89l1.4.16v18.47a3.76,3.76,0,0,0,.47,2.06,1.94,1.94,0,0,0,1.78.73,4.35,4.35,0,0,0,1.77-.4,6.58,6.58,0,0,0,1.65-1.07l1,1.67a11.73,11.73,0,0,1-2.73,1.69A6.75,6.75,0,0,1,305.8,150.73ZM303.74,133v-2h6.4l-.19,2Z"/><path class="c" d="M313.75,150.34l-.19-1.86,4.35-.89L316.35,149c0-.21.13-.57.22-1.09s.18-1.06.27-1.64A9.42,9.42,0,0,0,317,145v-8.62a12,12,0,0,0-.09-1.3q-.11-.79-.24-1.65c-.09-.57-.17-1-.25-1.44l1.52,1.79-4.27-.74.19-2h5.59l.74.7c0,.39-.06.93-.1,1.61s-.07,1.41-.1,2.16,0,1.43,0,2.05v6.29c0,1,0,2.05.12,3.11s.16,1.82.23,2.29l-1.43-1.44,4.38.39-.27,2H318c-.26,0-.63,0-1.12,0l-1.58.07Zm4.12-23.17a2.1,2.1,0,0,1-1.67-.66,2.53,2.53,0,0,1-.58-1.75,2.65,2.65,0,0,1,.58-1.8,2.08,2.08,0,0,1,1.67-.68,2.14,2.14,0,0,1,1.67.64,2.69,2.69,0,0,1,.58,1.84,2.58,2.58,0,0,1-.57,1.75A2.07,2.07,0,0,1,317.87,127.17Z"/><path class="c" d="M334.05,150.15l-5.12-13.35a24.7,24.7,0,0,0-1.05-2.41c-.39-.78-.78-1.55-1.16-2.33l1.86,1.4-3.65-.47.19-2h8.39l.11,2-3.68.43.89-1.36c.23.8.45,1.59.66,2.35s.44,1.51.7,2.23l3.92,11-.9,0,3.73-11.07a13.78,13.78,0,0,0,.6-2.25c.14-.77.31-1.54.49-2.29l1,1.44-4.31-.62.19-1.83h8l.12,2-3.5.39,1.83-1.32c-.47,1.06-.9,2-1.3,2.93s-.79,1.83-1.15,2.82l-4.46,12.38Z"/><path class="c" d="M353.18,150.54a6,6,0,0,1-4.11-1.34,4.56,4.56,0,0,1-1.51-3.59,4.61,4.61,0,0,1,1.3-3.36,6.83,6.83,0,0,1,3.9-1.77l6.79-1.12v1.9l-6.33,1.2a3.12,3.12,0,0,0-1.82.9,2.37,2.37,0,0,0-.66,1.7,3.27,3.27,0,0,0,.76,2.31,2.74,2.74,0,0,0,2.15.84,5.33,5.33,0,0,0,3.59-1.32,5.19,5.19,0,0,0,1.81-3.26v-5.48a7.44,7.44,0,0,0-.94-4.17,3.14,3.14,0,0,0-2.79-1.38,11.76,11.76,0,0,0-3.49.59,4.59,4.59,0,0,0-1.25.58l1.21-1.67-.47,2.91,0,1.59-2.25.12-.39-5.16c.78-.21,1.55-.38,2.33-.51s1.55-.22,2.33-.29,1.55-.1,2.33-.1q3.45,0,4.85,1.89c.93,1.25,1.4,3.41,1.4,6.46v4.77a19.37,19.37,0,0,0,.21,3.05c.14.87.26,1.55.37,2l-1.28-1.17,3.8.43-.23,2H360l-.78-4.39.7-.11a4,4,0,0,1-1,2.23,7.69,7.69,0,0,1-2.44,1.9A7.16,7.16,0,0,1,353.18,150.54Z"/><rect class="f" x="0.5" y="0.5" width="435.18" height="286.37"/><rect class="f" x="0.5" y="0.5" width="435.18" height="286.37"/></svg>