<svg xmlns="http://www.w3.org/2000/svg" viewBox="0 0 565.41 137.92"><defs><style>.a{isolation:isolate;}.b{fill:#d7edde;mix-blend-mode:multiply;}.c{fill:#e44e56;}.d{fill:#fff;}.e{fill:#58a878;}.f{fill:#e88024;}</style></defs><g class="a"><path class="b" d="M26.36,62.63a44.51,44.51,0,1,1,44.51,44.51A44.5,44.5,0,0,1,26.36,62.63"/><path class="c" d="M25.39,15.59c-1-1,1.8-2.1,3.14-1.7a3.61,3.61,0,0,0,4.06-1.47,3.57,3.57,0,0,0,.55-2.73,3.65,3.65,0,0,0-7.22.55,2.51,2.51,0,0,1-2.62,2.41C21.91,12.6,21.07,4,27.88,1.87a7.78,7.78,0,0,1,6.52,1.3,8.63,8.63,0,0,1,3.69,5.54c.45,2.27.26,4.91-1.53,6.51-2.38,2.15-7.3,4.3-11.17.37"/><path class="c" d="M56.51,14.11c-6.25,1.47-26.21,9.6-35,28.89-.58,1.27-2-2-1.47-3.25a50.23,50.23,0,0,1,16-21.1A50.28,50.28,0,0,1,60.3,8.09a2.52,2.52,0,0,1,2.82,2.2c.17,1.38-.16,4-1.25,4.87-1.75,1.42-2.49-1.72-5.36-1.05"/><path class="c" d="M35,47.55l-.22,0c-1.38.19-3.65-16.68,4.33-23,5.49-4.32,13.43-2.17,17.4-1.23,1.85.44,3-.93,4.29-.49a2.53,2.53,0,0,1,1.61,3.19c-1.06,3.25-5.09,4.09-5.54,4.18a2.52,2.52,0,0,1-1.41-.13L54.3,29.7c-5.39-2.19-9.14-3.44-12.11-1.1-3.79,3-6,11.27-5.31,16.13A2.54,2.54,0,0,1,35,47.55"/><path class="d" d="M12.28,91.34C11,92,10.85,89,11.64,87.83a3.65,3.65,0,0,0-2.57-5.69A3.66,3.66,0,0,0,5,85.33,3.63,3.63,0,0,0,5.77,88a3.56,3.56,0,0,0,1.59,1.17,2.51,2.51,0,0,1,1.49,3.24c-.48,1.31-9-.57-8.85-7.69a7.76,7.76,0,0,1,3.26-5.8,8.59,8.59,0,0,1,6.4-1.8c2.31.28,4.75,1.27,5.73,3.47,1.3,2.92,1.83,8.28-3.11,10.74"/><path class="d" d="M20.5,61.28c-.54,6.4,1,27.9,16.66,42.21,1,.94-2.46,1.26-3.55.39A50.17,50.17,0,0,1,18.49,82.16,50,50,0,0,1,16,55.82a2.51,2.51,0,0,1,2.95-2c1.37.26,3.75,1.38,4.25,2.69.81,2.1-2.41,1.84-2.65,4.77"/><path class="d" d="M45.64,92.11l0,.23c-.24,1.37-17-1.69-20.5-11.22-2.41-6.56,2.09-13.44,4.2-16.92,1-1.63,0-3.12.87-4.24a2.52,2.52,0,0,1,3.53-.54c2.76,2,2.32,6.1,2.26,6.56a2.46,2.46,0,0,1-.56,1.29l-.78.93c-3.73,4.45-6.08,7.63-4.78,11.17,1.67,4.54,8.86,9.21,13.7,10a2.53,2.53,0,0,1,2.09,2.69"/><path class="e" d="M79.36,127.84c.21,1.38-2.69.63-3.54-.47a3.64,3.64,0,0,0-6.31,3.48A3.66,3.66,0,0,0,74.19,133a3.62,3.62,0,0,0,1.59-1.16,2.53,2.53,0,0,1,3.55-.41c1.09.87-3.32,8.35-10,6a7.75,7.75,0,0,1-4.51-4.89,8.6,8.6,0,0,1,.27-6.64c1-2.11,2.67-4.13,5.06-4.38,3.19-.33,8.45.82,9.26,6.28"/><path class="e" d="M53.31,110.73c5.92,2.5,26.86,7.65,45.3-2.8,1.21-.68.44,2.73-.73,3.5a50.27,50.27,0,0,1-25.33,7.67,50.13,50.13,0,0,1-25.84-5.72,2.53,2.53,0,0,1-1-3.43c.67-1.22,2.48-3.14,3.87-3.21,2.26-.12,1,2.85,3.72,4"/><path class="e" d="M90.41,96.36l.2.09c1.23.66-6.86,15.64-17,16-7,.27-12.13-6.14-14.79-9.23-1.24-1.44-3-1-3.76-2.13a2.52,2.52,0,0,1,.58-3.53c2.76-2,6.52-.31,6.94-.12a2.5,2.5,0,0,1,1,.94l.64,1c3.08,4.93,5.38,8.15,9.15,8,4.83-.19,11.49-5.59,13.79-9.93a2.52,2.52,0,0,1,3.21-1.15"/><path class="f" d="M134.94,75.05c1.37.23-.23,2.75-1.54,3.22a3.65,3.65,0,1,0,4.85,3.3,3.55,3.55,0,0,0-.6-1.88,2.53,2.53,0,0,1,.7-3.5c1.16-.77,6.92,5.74,2.64,11.42a7.79,7.79,0,0,1-6.05,2.78,8.63,8.63,0,0,1-6.24-2.31c-1.7-1.57-3.09-3.82-2.59-6.17.66-3.13,3.38-7.77,8.83-6.86"/><path class="f" d="M110.62,94.54c4.2-4.86,15.57-23.18,11.33-43.94-.28-1.37,2.73.42,3.1,1.76a50.13,50.13,0,0,1-.53,26.47,50.19,50.19,0,0,1-13.43,22.8,2.51,2.51,0,0,1-3.56-.12c-1-1-2.22-3.32-1.86-4.67.58-2.18,3-.07,5-2.3"/><path class="f" d="M108.41,54.82l.15-.17c1-1,12.75,11.35,10,21.13C116.65,82.5,109,85.42,105.2,87c-1.75.74-1.86,2.5-3.19,2.93a2.53,2.53,0,0,1-3.18-1.64c-1-3.25,1.72-6.3,2-6.64a2.46,2.46,0,0,1,1.21-.72l1.17-.29c5.64-1.4,9.41-2.6,10.44-6.23,1.32-4.64-1.76-12.65-5.18-16.18a2.51,2.51,0,0,1-.1-3.4"/><path class="d" d="M101,5.14c.64-1.23,2.55,1.07,2.58,2.47a3.65,3.65,0,1,0,6.83-1.87A3.66,3.66,0,0,0,106.23,4a2.52,2.52,0,0,1-3.11-1.75c-.38-1.34,7.59-4.81,11.68,1a7.78,7.78,0,0,1,.77,6.61,8.65,8.65,0,0,1-4.12,5.22c-2,1.14-4.59,1.77-6.67.56C102,14.06,98.43,10,101,5.14"/><path class="d" d="M112,34.29c-3.33-5.49-17.24-22-38.29-24.35-1.39-.16,1.25-2.47,2.64-2.4a50.19,50.19,0,0,1,25,8.68A50.19,50.19,0,0,1,118.89,36a2.53,2.53,0,0,1-1.21,3.36c-1.26.59-3.85,1.08-5,.32-1.9-1.23.86-2.9-.66-5.42"/><path class="d" d="M73.54,24.12a1.28,1.28,0,0,1-.11-.2c-.62-1.25,14.74-8.61,23.17-3,5.81,3.88,6.21,12.09,6.55,16.15.16,1.9,1.8,2.54,1.8,3.94a2.54,2.54,0,0,1-2.55,2.52c-3.41,0-5.46-3.58-5.68-4a2.46,2.46,0,0,1-.31-1.38L96.49,37c.41-5.8.44-9.75-2.69-11.85-4-2.69-12.58-2.24-17-.07a2.52,2.52,0,0,1-3.27-1"/><path class="d" d="M157.15,104.39l-.26-2.82,5.38-1.3-3.19,2,1.2-2.19A22.29,22.29,0,0,0,161.33,98c.31-.73.61-1.46.89-2.19l9.39-28.45,3.86-.53,10.65,29.81a22.55,22.55,0,0,0,1.13,2.74c.43.89.84,1.72,1.22,2.48l-3-1.72,5.64.94-.26,3.08h-5c-.42,0-1.11,0-2.09.05l-3.16.1-3.1.11-.16-2.82,6-1.57-2,2.72c-.21-1.53-.42-2.82-.63-3.86a20.53,20.53,0,0,0-.89-3.14l-7.3-22.13h1.41l-7.63,24.07a15.3,15.3,0,0,0-.44,2.24c-.09.77-.15,1.58-.18,2.45l-2.25-2,5.95.73-.26,3.08h-4.8c-.42,0-1,0-1.88.05l-2.66.1Zm9.19-11.28V89.88h14.25v3.23Z"/><path class="d" d="M194.94,104.39l-.26-3,6.16-1.2-2.71,2.4c.1-.38.22-1,.34-1.74s.23-1.6.34-2.43a17.57,17.57,0,0,0,.15-1.93V86.22a19.05,19.05,0,0,0-.15-2c-.11-.87-.23-1.73-.37-2.59s-.24-1.47-.31-1.85l2.66,2.82-6.26-1,.31-3.19h7.36l1,.94,1,8.51-2-2.25c.39-.86.83-1.74,1.33-2.63a13.68,13.68,0,0,1,1.83-2.48A8,8,0,0,1,208,78.58a8.67,8.67,0,0,1,3.63-.71,14.49,14.49,0,0,1,3.81.52l-.63,9.24-3.34-.15V84.71a7,7,0,0,0-.15-1c-.11-.5-.24-1-.4-1.59s-.28-1-.39-1.3l2.09,1.25-1,0-1,0A5.6,5.6,0,0,0,206,84.11a8.91,8.91,0,0,0-1.65,5.72v5.11q0,2.3.21,4.44c.14,1.43.26,2.5.36,3.23l-2.6-2.19,7.25.58-.31,3.13H200.9l-1.47.05-2.27.1Z"/><path class="d" d="M219.79,104.39l-.26-3,6.16-1.2-2.71,2.4c.1-.38.21-1,.34-1.74s.23-1.6.33-2.43a15.78,15.78,0,0,0,.16-1.93V86.22a17.13,17.13,0,0,0-.16-2c-.1-.87-.22-1.73-.36-2.59s-.24-1.47-.31-1.85l2.66,2.82-6.27-1,.32-3.19h7.36l1,.94,1.1,9v6.63q0,2.3.21,4.44c.14,1.43.26,2.5.36,3.23l-2.61-2.19,6.21.58-.31,3.13h-7.31l-1.46.05-2.27.1Zm16.08,0-.26-3,5.58-1.25L238.74,102q.1-.74.24-1.83c.08-.73.16-1.44.23-2.14s.1-1.22.1-1.56V89a17,17,0,0,0-.36-3.6,5.73,5.73,0,0,0-1.28-2.69,3.36,3.36,0,0,0-2.64-1,5,5,0,0,0-4.17,2.3,9.91,9.91,0,0,0-1.67,6l-1.83-5a13.57,13.57,0,0,1,2.17-3.81,9.58,9.58,0,0,1,3.08-2.51,8.33,8.33,0,0,1,3.83-.88,8,8,0,0,1,4.91,1.33,7.13,7.13,0,0,1,2.51,3.76,20.52,20.52,0,0,1,.73,5.82v6.26c0,.87,0,1.79.13,2.77s.17,1.84.26,2.61.15,1.29.18,1.56l-2.5-1.46,6.21.58-.32,3.13h-7l-1.26.05c-.66,0-1.4.07-2.21.1Zm15.45,0-.26-3,5.64-1.25L254.19,102a15.4,15.4,0,0,0,.26-1.83c.07-.73.14-1.44.21-2.14s.11-1.22.11-1.56V89a18.5,18.5,0,0,0-.34-3.6,5.55,5.55,0,0,0-1.28-2.69,3.45,3.45,0,0,0-2.66-1,5,5,0,0,0-4.15,2.25,10.32,10.32,0,0,0-1.75,5.95l-1.73-5a11.79,11.79,0,0,1,3.61-5.22A8.46,8.46,0,0,1,252,77.77a7.89,7.89,0,0,1,4.85,1.33,7.16,7.16,0,0,1,2.53,3.76,19.43,19.43,0,0,1,.76,5.82v6.26c0,.87,0,1.79.1,2.77s.16,1.84.27,2.61.17,1.29.21,1.56l-2.56-1.46,6.21.58-.31,3.13H257l-1.25.05-2.22.1Z"/><path class="d" d="M279.3,104.75a12.52,12.52,0,0,1-6.66-1.67,10.81,10.81,0,0,1-4.17-4.69,16.26,16.26,0,0,1-1.44-7,17,17,0,0,1,1.39-7.15,10.85,10.85,0,0,1,4-4.73,11.54,11.54,0,0,1,6.42-1.69,10.45,10.45,0,0,1,5.95,1.54,8.85,8.85,0,0,1,3.37,4.3,17,17,0,0,1,1,6.58L288.17,92h-16V89l13.36-.89L283,90.66c0-.56.07-1.1.13-1.64s.08-1.09.08-1.65a8.46,8.46,0,0,0-1.15-4.64A3.93,3.93,0,0,0,278.52,81a4.34,4.34,0,0,0-2.72.84,5.22,5.22,0,0,0-1.67,2.29,14.23,14.23,0,0,0-.81,3.24,29,29,0,0,0-.23,3.65,18.06,18.06,0,0,0,.39,3.87A9.82,9.82,0,0,0,274.73,98a6.43,6.43,0,0,0,2.14,2.11,6,6,0,0,0,3.11.76,13.2,13.2,0,0,0,4.31-.7,17.54,17.54,0,0,0,3-1.34l1.51,2.61a7.81,7.81,0,0,1-1.09.84,18.93,18.93,0,0,1-2,1.12,14.08,14.08,0,0,1-2.82,1A15.3,15.3,0,0,1,279.3,104.75Z"/><path class="d" d="M294,104.39l-.26-3,6.16-1.2-2.72,2.4a15.24,15.24,0,0,0,.34-1.74c.13-.79.24-1.6.34-2.43a15.78,15.78,0,0,0,.16-1.93V86.22a17.13,17.13,0,0,0-.16-2c-.1-.87-.22-1.73-.36-2.59s-.25-1.47-.32-1.85l2.67,2.82-6.27-1,.32-3.19h7.36l1,.94,1.1,9v6.63c0,1.53.07,3,.2,4.44s.27,2.5.37,3.23l-2.61-2.19,6.21.58-.31,3.13H300l-1.46.05-2.27.1Zm16.08,0-.26-3,5.58-1.25L313,102c.07-.49.15-1.1.23-1.83s.17-1.44.24-2.14.1-1.22.1-1.56V89a17,17,0,0,0-.36-3.6,5.83,5.83,0,0,0-1.28-2.69,3.36,3.36,0,0,0-2.64-1,5,5,0,0,0-4.17,2.3,9.91,9.91,0,0,0-1.67,6l-1.83-5a13.33,13.33,0,0,1,2.17-3.81,9.58,9.58,0,0,1,3.08-2.51,8.33,8.33,0,0,1,3.83-.88,8,8,0,0,1,4.91,1.33,7.06,7.06,0,0,1,2.5,3.76,20.17,20.17,0,0,1,.73,5.82v6.26c0,.87.05,1.79.14,2.77s.17,1.84.26,2.61.14,1.29.18,1.56l-2.51-1.46,6.22.58-.32,3.13h-7l-1.26.05c-.66,0-1.4.07-2.22.1Zm15.45,0-.26-3,5.64-1.25L328.42,102a17.8,17.8,0,0,0,.26-1.83c.07-.73.14-1.44.21-2.14s.1-1.22.1-1.56V89a17.75,17.75,0,0,0-.34-3.6,5.45,5.45,0,0,0-1.27-2.69,3.46,3.46,0,0,0-2.67-1,5,5,0,0,0-4.15,2.25,10.39,10.39,0,0,0-1.75,5.95l-1.72-5a11.85,11.85,0,0,1,3.6-5.22,8.5,8.5,0,0,1,5.49-1.88A7.89,7.89,0,0,1,331,79.1a7.22,7.22,0,0,1,2.53,3.76,19.43,19.43,0,0,1,.76,5.82v6.26c0,.87,0,1.79.1,2.77s.16,1.84.26,2.61.18,1.29.21,1.56l-2.55-1.46,6.21.58-.32,3.13h-7l-1.26.05c-.66,0-1.4.07-2.21.1Z"/><path class="d" d="M353.58,104.75a12.72,12.72,0,0,1-6.76-1.67,10.59,10.59,0,0,1-4.15-4.69,18.71,18.71,0,0,1,0-14.25,10.56,10.56,0,0,1,4.15-4.7,12.72,12.72,0,0,1,6.76-1.67q6.06,0,9.16,3.62t3.11,9.9a16.84,16.84,0,0,1-1.39,7.1,10.41,10.41,0,0,1-4.12,4.69A12.72,12.72,0,0,1,353.58,104.75Zm0-3.44a5.13,5.13,0,0,0,3.73-1.33,7.59,7.59,0,0,0,2-3.6,22.1,22.1,0,0,0,0-10.23,7.58,7.58,0,0,0-2-3.61,5.9,5.9,0,0,0-7.46,0,7.65,7.65,0,0,0-2,3.58,22.6,22.6,0,0,0,0,10.26,7.68,7.68,0,0,0,2,3.6A5.15,5.15,0,0,0,353.58,101.31Z"/><path class="d" d="M380.1,104.65a17.61,17.61,0,0,1-4.93-.63c-1.45-.41-2.66-.8-3.63-1.14l.26-7.52h3.29v2.19a4.65,4.65,0,0,0,.21,1.07,11.8,11.8,0,0,0,.57,1.59c.24.56.47,1.05.68,1.47l-1.78-2.3a7,7,0,0,0,2.43,1.54,8.48,8.48,0,0,0,3,.55,5,5,0,0,0,2.93-.81,3.19,3.19,0,0,0-.34-5.14,29.1,29.1,0,0,0-3.53-1.88l-2.63-1.33a13.44,13.44,0,0,1-2.53-1.65,7.31,7.31,0,0,1-1.86-2.27,6.67,6.67,0,0,1-.7-3.16A6.57,6.57,0,0,1,374,79.67a9.93,9.93,0,0,1,6.24-1.9,28.28,28.28,0,0,1,4.12.28,37.41,37.41,0,0,1,3.71.76l-.32,7.73-3.18-.21v-2a4.66,4.66,0,0,0-.32-1.12c-.2-.57-.43-1.17-.67-1.8s-.44-1.1-.58-1.41l2.09,2.35a16.61,16.61,0,0,0-2.24-1,8.11,8.11,0,0,0-2.61-.37,4.54,4.54,0,0,0-2.85.79,2.54,2.54,0,0,0-1,2.14,2.81,2.81,0,0,0,1.52,2.45,27.09,27.09,0,0,0,3.55,1.83c.9.41,1.82.86,2.76,1.33a13.65,13.65,0,0,1,2.59,1.67,7.78,7.78,0,0,1,1.9,2.32,6.83,6.83,0,0,1,.73,3.29c0,2.71-.85,4.7-2.55,6A11.24,11.24,0,0,1,380.1,104.65Z"/><path class="d" d="M402.44,104.15l-.26-2.92,6.22-1.2-2.56,2.35c.07-.38.16-1,.28-1.78s.24-1.59.34-2.4a14.37,14.37,0,0,0,.16-1.82V74.61a13.22,13.22,0,0,0-.13-1.57c-.09-.69-.18-1.45-.29-2.27s-.22-1.55-.36-2.22L408.4,71l-6.11-1,.26-3.08,2.14.11,2.3.1c.73,0,1.27,0,1.61,0h12.06l1.52,0c.69,0,1.44-.06,2.24-.11l2.19-.13,1,.94.36,7.1-3.18.26-.53-2.71a4.91,4.91,0,0,0-.67-1.57,20.84,20.84,0,0,0-1.2-1.88l2.19,1.72c-.59-.07-1.39-.13-2.4-.2s-2-.11-3-.11h-8.77L412.73,69q-.11,1.2-.24,2.61t-.21,2.64c0,.82-.07,1.45-.07,1.91V94.81c0,.8,0,1.71.1,2.72s.16,2,.26,2.87.19,1.6.26,2.08l-2.14-2h9.14a18.8,18.8,0,0,0,3.13-.26c1-.17,1.72-.31,2.14-.42l-2,1.83a17.94,17.94,0,0,0,1.41-2,6.82,6.82,0,0,0,.84-1.64l.73-3.4,3.08.27-.78,8.24-1,.94-2.16-.1c-.79,0-1.52-.06-2.19-.08l-1.6,0H409.7l-1.93,0c-.84,0-1.72,0-2.66.08S403.28,104.08,402.44,104.15Zm18.8-13.88L420.51,85,422.65,87c-.46-.07-1-.14-1.78-.21l-2.22-.2c-.75-.07-1.36-.11-1.85-.11h-6.42V83.27h7.46a13.62,13.62,0,0,0,2.35-.23l1.93-.34-1.61,2.14.73-5.48,2.55.26V84c0,2,.06,4,.16,5.95Z"/><path class="d" d="M444.15,104.42a9,9,0,0,1-7.54-3.53q-2.75-3.52-2.74-9.79a16.8,16.8,0,0,1,1.43-7.17,11.07,11.07,0,0,1,4.05-4.73,11.3,11.3,0,0,1,6.21-1.67,29.42,29.42,0,0,1,3.4.19c1.11.12,2.32.31,3.62.57s2.81.63,4.52,1.12L455,83.17a28.58,28.58,0,0,0-4.67-1.41,21.54,21.54,0,0,0-4.21-.42,5.24,5.24,0,0,0-4.62,2.51,12.85,12.85,0,0,0-1.64,7.05,13.6,13.6,0,0,0,1.46,6.89,4.54,4.54,0,0,0,4.07,2.45,5.15,5.15,0,0,0,4.31-2,9.4,9.4,0,0,0,1.64-5.59l1.1,6.21a10.26,10.26,0,0,1-2.09,2.9,9.26,9.26,0,0,1-2.92,2A8.37,8.37,0,0,1,444.15,104.42Zm2.14,11.64-.26-2.82,7.1-1.2-2.66,2.24c.07-.38.17-1,.31-1.75s.26-1.58.37-2.4a16.79,16.79,0,0,0,.15-1.9V86.62c0-.74,0-1.59-.07-2.56s-.15-1.9-.29-2.77l6.16-1.88c-.07.56-.14,1.32-.21,2.27s-.13,1.93-.18,2.9-.08,1.83-.08,2.56v19.52c0,1.57.07,3.06.21,4.49s.26,2.47.36,3.13l-2.61-2,5.59.57-.26,2.93h-6.68c-.32,0-.9,0-1.75,0l-2.74.1C447.77,116,447,116,446.29,116.06Z"/><path class="d" d="M473.44,104.31a9.11,9.11,0,0,1-5.3-1.33,6.94,6.94,0,0,1-2.66-3.81,19.8,19.8,0,0,1-.76-5.82V86a15.9,15.9,0,0,0-.13-1.62c-.09-.69-.19-1.45-.32-2.27s-.23-1.56-.33-2.22l2.55,2.45-5.53-1,.31-3.18h8.15l1,.94c-.07.83-.14,1.79-.21,2.87s-.12,2.12-.15,3.13-.06,1.84-.06,2.51v6.68a8.38,8.38,0,0,0,1,4.33,3.91,3.91,0,0,0,3.68,1.72,5.13,5.13,0,0,0,3.19-1A6.68,6.68,0,0,0,480,96.43a10.29,10.29,0,0,0,.73-4V86c0-.38,0-.91-.1-1.59s-.16-1.42-.26-2.22-.21-1.53-.31-2.19l2.5,2.34-6.11-1,.32-3.18h8.66l1.05.94c0,.83-.09,1.79-.16,2.87s-.12,2.12-.16,3.13-.05,1.84-.05,2.51v7.15a34.09,34.09,0,0,0,.24,4q.22,2,.39,4l-2.56-2.61,5.85.57-.32,3.13h-7.78L481,97.47l1,1.26a16.82,16.82,0,0,1-1.67,2.42,9.43,9.43,0,0,1-2.69,2.22A8.37,8.37,0,0,1,473.44,104.31Z"/><path class="d" d="M493.53,104.15l-.26-3,6.16-1.2-2.71,2.4c.1-.38.22-1,.34-1.75s.23-1.59.34-2.43a17.4,17.4,0,0,0,.15-1.93V86a18.63,18.63,0,0,0-.13-2c-.08-.82-.2-1.66-.34-2.53s-.26-1.6-.36-2.19l2.66,3-6.26-1,.31-3.18h8.82l1.05.94c0,.62-.09,1.44-.16,2.45s-.12,2-.16,3.13-.05,2.06-.05,2.93v7.15c0,1.53.07,3,.21,4.43s.26,2.51.36,3.24l-2.61-2.19,6.22.57-.32,3.13h-7.31c-.27,0-.76,0-1.46.06l-2.27.1Zm5.69-30.79a2.89,2.89,0,0,1-2.35-1,3.77,3.77,0,0,1-.83-2.5,3.86,3.86,0,0,1,.83-2.56,3.45,3.45,0,0,1,4.75-.08,3.77,3.77,0,0,1,.84,2.64,3.72,3.72,0,0,1-.84,2.53A3,3,0,0,1,499.22,73.36Z"/><path class="d" d="M509.92,116.06l-.26-2.82,5.54-1.2-2.72,2.24c.07-.38.17-1,.29-1.75s.24-1.59.36-2.42a13.42,13.42,0,0,0,.19-1.94V86a14.57,14.57,0,0,0-.19-2c-.12-.87-.26-1.73-.41-2.58s-.27-1.47-.34-1.85l2.76,2.81-6.31-1,.36-3.18h7.36l1,.94.68,5.84-.94-.78a9.68,9.68,0,0,1,1.91-3.45,9.4,9.4,0,0,1,3-2.29,7.86,7.86,0,0,1,3.53-.84,9.33,9.33,0,0,1,7.7,3.4q2.73,3.39,2.74,9.5a16.21,16.21,0,0,1-1.57,7.33,11.51,11.51,0,0,1-10.8,6.66,13.81,13.81,0,0,1-2.93-.34,21.73,21.73,0,0,1-3-.92l-.06-4.49a12.75,12.75,0,0,0,2.93,1.47,8.46,8.46,0,0,0,2.66.46,5.83,5.83,0,0,0,5.12-2.47c1.14-1.66,1.72-4.12,1.72-7.39q0-4.55-1.44-6.81a4.73,4.73,0,0,0-4.3-2.27,5,5,0,0,0-4.26,2.14,9.11,9.11,0,0,0-1.59,5.58v17.23a42.53,42.53,0,0,0,.23,4.44c.16,1.42.29,2.5.4,3.23l-2.61-2,7.2.57-.31,2.93h-8.3c-.28,0-.72,0-1.31,0L512,116Z"/><path class="d" d="M553.15,104.52a12.78,12.78,0,0,1-6.76-1.67,10.56,10.56,0,0,1-4.15-4.7,18.71,18.71,0,0,1,0-14.25,10.61,10.61,0,0,1,4.15-4.7,12.78,12.78,0,0,1,6.76-1.67q6,0,9.16,3.63t3.1,9.89a17,17,0,0,1-1.38,7.1,10.44,10.44,0,0,1-4.12,4.7A12.81,12.81,0,0,1,553.15,104.52Zm0-3.44a5.15,5.15,0,0,0,3.73-1.34,7.48,7.48,0,0,0,2-3.6,19.91,19.91,0,0,0,.6-5.09,20.15,20.15,0,0,0-.6-5.14,7.58,7.58,0,0,0-2-3.6,5.91,5.91,0,0,0-7.47,0,7.57,7.57,0,0,0-2,3.57,20.12,20.12,0,0,0-.6,5.17,19.91,19.91,0,0,0,.6,5.09,7.48,7.48,0,0,0,2,3.6A5.16,5.16,0,0,0,553.15,101.08Z"/><path class="d" d="M199.42,61.87l-.2-1.86,4.35-.89L202,60.56c0-.21.12-.57.21-1.09s.18-1.07.27-1.65a9.62,9.62,0,0,0,.14-1.34V47.86a10.27,10.27,0,0,0-.1-1.3c-.06-.53-.14-1.08-.23-1.65s-.17-1-.25-1.43l1.51,1.78-4.27-.73.2-2h5.58l.74.7c0,.38-.06.92-.09,1.61s-.08,1.4-.1,2.15,0,1.44,0,2.06v6.29c0,1,0,2,.12,3.1s.15,1.82.23,2.29l-1.44-1.44,4.39.39-.27,2h-4.93c-.26,0-.64,0-1.13,0L201,61.8Zm4.11-23.17a2.12,2.12,0,0,1-1.67-.66,2.57,2.57,0,0,1-.58-1.74,2.75,2.75,0,0,1,.58-1.81,2.1,2.1,0,0,1,1.67-.68,2.16,2.16,0,0,1,1.67.64,2.67,2.67,0,0,1,.58,1.85,2.56,2.56,0,0,1-.56,1.74A2.09,2.09,0,0,1,203.53,38.7Z"/><path class="d" d="M211.29,61.87,211.1,60l4.35-.89-1.56,1.44c.06-.21.13-.57.22-1.09s.18-1.07.27-1.65a9.62,9.62,0,0,0,.14-1.34V47.86a10.69,10.69,0,0,0-.12-1.37c-.08-.59-.17-1.17-.27-1.75s-.18-1-.24-1.26l1.56,1.78-4.27-.73.19-2h4.82l.73.7.55,5.82-.86-2.25a8.14,8.14,0,0,1,1.5-2.49,6.14,6.14,0,0,1,2.15-1.55A6.74,6.74,0,0,1,223,42.2a6.65,6.65,0,0,1,4.15,1.1,5.53,5.53,0,0,1,1.9,3.13,19.41,19.41,0,0,1,.51,4.73v4.16c0,1,0,1.9.13,2.83s.18,1.66.25,2.17l-1.39-1,4.38.39-.27,2h-5l-.85,0-1.53.08-1.5.07L223.6,60l3.88-.93L226,60c.08-.25.16-.57.26-.95s.16-.78.23-1.22a9.77,9.77,0,0,0,.1-1.32V51.12a16.18,16.18,0,0,0-.32-3.24,5,5,0,0,0-1.2-2.5,3.34,3.34,0,0,0-2.6-1,4.33,4.33,0,0,0-3.71,1.86A7.93,7.93,0,0,0,217.47,51v4.31c0,1,0,2,.11,3.1s.16,1.82.23,2.29l-1.43-1.44,4.38.39-.27,2h-4.93c-.25,0-.63,0-1.12,0l-1.57.08Z"/><path class="d" d="M235.32,61.87l-.2-1.86,4.35-.89-1.55,1.44c.05-.21.12-.57.21-1.09s.18-1.07.27-1.65a9.62,9.62,0,0,0,.14-1.34V47.86a10.27,10.27,0,0,0-.1-1.3c-.06-.53-.14-1.08-.23-1.65s-.17-1-.25-1.43l1.51,1.78-4.27-.73.2-2H241l.73.7c0,.38-.06.92-.09,1.61s-.08,1.4-.1,2.15,0,1.44,0,2.06v6.29c0,1,0,2,.12,3.1s.15,1.82.23,2.29l-1.44-1.44,4.39.39-.27,2h-4.93c-.26,0-.64,0-1.13,0l-1.57.08Zm4.11-23.17a2.12,2.12,0,0,1-1.67-.66,2.57,2.57,0,0,1-.58-1.74,2.75,2.75,0,0,1,.58-1.81,2.1,2.1,0,0,1,1.67-.68,2.16,2.16,0,0,1,1.67.64,2.67,2.67,0,0,1,.58,1.85,2.56,2.56,0,0,1-.56,1.74A2.09,2.09,0,0,1,239.43,38.7Z"/><path class="d" d="M256.28,62.07a8.89,8.89,0,0,1-4.91-1.26,7.61,7.61,0,0,1-2.93-3.51,13,13,0,0,1-1-5.17,12.7,12.7,0,0,1,1-5.18,7.75,7.75,0,0,1,3-3.49,9,9,0,0,1,4.92-1.26,10.28,10.28,0,0,1,3,.39c.86.25,1.87.59,3,1L262,48.21l-2.13-.11V46.78a3.93,3.93,0,0,0-.22-1c-.14-.48-.27-.93-.4-1.34l1.2,1.24a22.44,22.44,0,0,0-2.08-.95,5.49,5.49,0,0,0-2-.41,4.29,4.29,0,0,0-3.17,1.19,7,7,0,0,0-1.72,3,12.64,12.64,0,0,0,0,7.31,6.34,6.34,0,0,0,1.68,2.82,4.46,4.46,0,0,0,3.15,1.08,9.81,9.81,0,0,0,2.77-.39,17.17,17.17,0,0,0,2.74-1L262.8,60a12.08,12.08,0,0,1-3.22,1.57A11.08,11.08,0,0,1,256.28,62.07Z"/><path class="d" d="M265.86,61.87,265.67,60l4.35-.89-1.56,1.44c.06-.21.13-.57.22-1.09s.18-1.07.27-1.65a9.3,9.3,0,0,0,.13-1.34V47.86a12.13,12.13,0,0,0-.09-1.3q-.11-.8-.24-1.65c-.09-.56-.17-1-.25-1.43L270,45.26l-4.27-.73.19-2h5.59l.74.7c0,.38-.06.92-.1,1.61s-.07,1.4-.1,2.15,0,1.44,0,2.06v6.29c0,1,0,2,.12,3.1s.16,1.82.23,2.29L271,59.27l4.38.39-.27,2h-4.93c-.26,0-.63,0-1.12,0l-1.57.08ZM270,38.7a2.1,2.1,0,0,1-1.67-.66,2.52,2.52,0,0,1-.58-1.74,2.7,2.7,0,0,1,.58-1.81,2.08,2.08,0,0,1,1.67-.68,2.18,2.18,0,0,1,1.67.64,2.71,2.71,0,0,1,.58,1.85,2.57,2.57,0,0,1-.57,1.74A2.07,2.07,0,0,1,270,38.7Z"/><path class="d" d="M283.52,62.07a6,6,0,0,1-4.11-1.34,4.55,4.55,0,0,1-1.52-3.59,4.66,4.66,0,0,1,1.3-3.36,6.82,6.82,0,0,1,3.9-1.76l6.8-1.13v1.9L283.56,54a3.08,3.08,0,0,0-1.82.89,2.38,2.38,0,0,0-.66,1.71,3.34,3.34,0,0,0,.75,2.31,2.8,2.8,0,0,0,2.16.83,5.33,5.33,0,0,0,3.59-1.32,5.13,5.13,0,0,0,1.8-3.26V49.69a7.51,7.51,0,0,0-.93-4.17,3.14,3.14,0,0,0-2.79-1.38,11,11,0,0,0-1.75.15,12.79,12.79,0,0,0-1.75.43,5,5,0,0,0-1.24.58l1.2-1.67-.46,2.91,0,1.6-2.25.11-.39-5.16a23.58,23.58,0,0,1,2.33-.5c.77-.13,1.55-.23,2.33-.3s1.55-.09,2.32-.09c2.31,0,3.92.63,4.86,1.88s1.39,3.41,1.39,6.46v4.78a18,18,0,0,0,.22,3c.14.87.26,1.55.37,2l-1.29-1.16,3.81.42-.24,2h-4.85l-.77-4.38.7-.12a4.08,4.08,0,0,1-1,2.23,7.59,7.59,0,0,1-2.45,1.9A7,7,0,0,1,283.52,62.07Z"/><path class="d" d="M304.83,62.26c-1.73,0-2.89-.46-3.47-1.39a7.53,7.53,0,0,1-.88-4V43.25l1.25,1.28h-4.51L297.11,43c.33-.13.75-.27,1.24-.44l1.49-.53,1.23-.42-1.32,1.28a7.59,7.59,0,0,0,.52-.84c.22-.4.45-.85.68-1.36s.45-1,.66-1.37.35-.71.43-.9l1.39.16V57a3.85,3.85,0,0,0,.47,2.06,1.94,1.94,0,0,0,1.78.74,4.37,4.37,0,0,0,1.77-.41,6.24,6.24,0,0,0,1.65-1.07l1,1.67a11.45,11.45,0,0,1-2.74,1.69A6.54,6.54,0,0,1,304.83,62.26Zm-2.06-17.73v-2h6.41l-.2,2Z"/><path class="d" d="M312.79,61.87l-.2-1.86,4.35-.89-1.55,1.44c.05-.21.12-.57.21-1.09s.18-1.07.27-1.65a9.62,9.62,0,0,0,.14-1.34V47.86a12.57,12.57,0,0,0-.1-1.3c-.06-.53-.14-1.08-.23-1.65s-.18-1-.26-1.43l1.52,1.78-4.27-.73.19-2h5.59l.74.7c0,.38-.06.92-.1,1.61S319,46.22,319,47s0,1.44,0,2.06v6.29c0,1,0,2,.11,3.1s.16,1.82.24,2.29l-1.44-1.44,4.39.39-.28,2h-4.93c-.25,0-.63,0-1.12,0l-1.57.08ZM316.9,38.7a2.1,2.1,0,0,1-1.67-.66,2.52,2.52,0,0,1-.58-1.74,2.7,2.7,0,0,1,.58-1.81,2.08,2.08,0,0,1,1.67-.68,2.18,2.18,0,0,1,1.67.64,2.67,2.67,0,0,1,.58,1.85,2.62,2.62,0,0,1-.56,1.74A2.11,2.11,0,0,1,316.9,38.7Z"/><path class="d" d="M333.08,61.68,328,48.33a24.7,24.7,0,0,0-1-2.41c-.39-.77-.77-1.55-1.16-2.33l1.86,1.4L324,44.53l.2-2h8.38l.12,2-3.69.42.89-1.35q.36,1.2.66,2.34c.21.77.44,1.51.7,2.24l3.92,10.94-.89,0L338,48.06a15.55,15.55,0,0,0,.61-2.25c.14-.78.3-1.54.48-2.29L340,45l-4.31-.62.2-1.82h8l.12,2-3.49.39,1.82-1.32-1.3,2.93c-.4.89-.78,1.83-1.15,2.81l-4.46,12.38Z"/><path class="d" d="M352.22,62.07a6,6,0,0,1-4.12-1.34,4.55,4.55,0,0,1-1.51-3.59,4.62,4.62,0,0,1,1.3-3.36,6.82,6.82,0,0,1,3.9-1.76l6.79-1.13v1.9L352.26,54a3.11,3.11,0,0,0-1.83.89,2.38,2.38,0,0,0-.66,1.71,3.35,3.35,0,0,0,.76,2.31,2.77,2.77,0,0,0,2.15.83,5.33,5.33,0,0,0,3.59-1.32,5.1,5.1,0,0,0,1.81-3.26V49.69a7.51,7.51,0,0,0-.93-4.17,3.16,3.16,0,0,0-2.8-1.38,11,11,0,0,0-1.74.15,12.44,12.44,0,0,0-1.75.43,4.82,4.82,0,0,0-1.24.58l1.2-1.67-.46,2.91,0,1.6-2.25.11-.39-5.16c.78-.21,1.56-.37,2.33-.5s1.56-.23,2.33-.3,1.55-.09,2.33-.09q3.45,0,4.85,1.88t1.4,6.46v4.78a19.24,19.24,0,0,0,.21,3c.14.87.27,1.55.37,2l-1.28-1.16,3.8.42-.23,2H359l-.78-4.38.7-.12a4,4,0,0,1-1,2.23,7.45,7.45,0,0,1-2.44,1.9A7,7,0,0,1,352.22,62.07Z"/></g></svg>