<svg xmlns="http://www.w3.org/2000/svg" viewBox="0 0 232.87 127.56"><defs><style>.a{fill:#5683c3;}</style></defs><path class="a" d="M2.56,75.79,2.3,73l5.37-1.31-3.18,2,1.2-2.2a22.26,22.26,0,0,0,1-2.14c.32-.73.61-1.46.89-2.19L17,38.73l3.86-.52L31.53,68a22.49,22.49,0,0,0,1.12,2.74l1.23,2.48-3-1.73,5.64.94-.26,3.08h-5c-.42,0-1.12,0-2.09.06l-3.16.1-3.11.1L22.71,73l6-1.57-2,2.71c-.2-1.53-.41-2.81-.62-3.86a21.61,21.61,0,0,0-.89-3.13L17.85,45h1.41L11.64,69.06a13,13,0,0,0-.44,2.25c-.09.76-.15,1.58-.19,2.45l-2.24-2,6,.73-.26,3.08H9.66c-.42,0-1.05,0-1.88.06l-2.66.1Zm9.19-11.27V61.28H26v3.24Z" transform="translate(-2.3 -5.22)"/><path class="a" d="M40.35,75.79l-.26-3,6.16-1.2L43.54,74c.1-.38.21-1,.33-1.75s.24-1.59.34-2.43a15.49,15.49,0,0,0,.16-1.93V57.63a17.12,17.12,0,0,0-.16-2q-.15-1.31-.36-2.58c-.14-.85-.25-1.47-.31-1.85L46.2,54l-6.27-1,.32-3.18h7.36l1,.94,1,8.51-2-2.25c.38-.87.83-1.75,1.33-2.64a13.11,13.11,0,0,1,1.83-2.48A8.17,8.17,0,0,1,53.43,50a8.6,8.6,0,0,1,3.62-.7,13.73,13.73,0,0,1,1.91.13,14.06,14.06,0,0,1,1.91.39L60.24,59l-3.34-.16V56.12a5.94,5.94,0,0,0-.16-1c-.1-.5-.23-1-.39-1.59s-.29-1-.39-1.31l2.09,1.25c-.32,0-.65,0-1,0l-1,0a5.64,5.64,0,0,0-4.67,2.06,9,9,0,0,0-1.64,5.72v5.12c0,1.53.07,3,.21,4.43s.26,2.51.36,3.24l-2.61-2.19L55,72.4l-.32,3.13H46.3c-.28,0-.76,0-1.46.06l-2.27.1Z" transform="translate(-2.3 -5.22)"/><path class="a" d="M65.2,75.79l-.26-3,6.16-1.2L68.38,74a15.51,15.51,0,0,0,.34-1.75c.12-.78.24-1.59.34-2.43a15.49,15.49,0,0,0,.16-1.93V57.63a17.12,17.12,0,0,0-.16-2c-.1-.87-.23-1.73-.36-2.58s-.25-1.47-.32-1.85L71,54l-6.26-1,.31-3.18h7.36l1,.94,1.09,9v6.63c0,1.53.07,3,.21,4.43s.26,2.51.37,3.24l-2.61-2.19,6.21.57-.31,3.13H71.15c-.28,0-.77,0-1.46.06l-2.27.1Zm16.08,0-.27-3,5.59-1.25-2.45,1.88c.07-.49.14-1.1.23-1.83s.17-1.44.24-2.14.1-1.22.1-1.57V60.4a17.19,17.19,0,0,0-.36-3.61,5.79,5.79,0,0,0-1.28-2.68,3.36,3.36,0,0,0-2.64-1,5,5,0,0,0-4.18,2.29,10,10,0,0,0-1.67,6l-1.82-5a13.41,13.41,0,0,1,2.16-3.81A9.66,9.66,0,0,1,78,50.06a8.41,8.41,0,0,1,3.84-.89,8.09,8.09,0,0,1,4.91,1.33,7.12,7.12,0,0,1,2.5,3.76A20.27,20.27,0,0,1,90,60.08v6.27c0,.87.05,1.79.13,2.76s.18,1.85.26,2.61.15,1.29.19,1.57l-2.51-1.46,6.21.57L94,75.53h-7l-1.25.06-2.22.1Zm15.45,0-.26-3,5.63-1.25-2.5,1.88a17.8,17.8,0,0,0,.26-1.83c.07-.73.14-1.44.21-2.14s.1-1.22.1-1.57V60.4a17.92,17.92,0,0,0-.34-3.61,5.34,5.34,0,0,0-1.28-2.68,3.42,3.42,0,0,0-2.66-1,5,5,0,0,0-4.15,2.24,10.41,10.41,0,0,0-1.75,6l-1.72-5a11.85,11.85,0,0,1,3.6-5.22,8.55,8.55,0,0,1,5.48-1.88,8,8,0,0,1,4.86,1.33,7.22,7.22,0,0,1,2.53,3.76,19.85,19.85,0,0,1,.76,5.82v6.27c0,.87,0,1.79.1,2.76s.16,1.85.26,2.61.18,1.29.21,1.57l-2.56-1.46,6.22.57-.32,3.13h-7l-1.25.06-2.22.1Z" transform="translate(-2.3 -5.22)"/><path class="a" d="M124.71,76.16a12.61,12.61,0,0,1-6.66-1.67,10.74,10.74,0,0,1-4.18-4.7,16.39,16.39,0,0,1-1.43-7,17.16,17.16,0,0,1,1.38-7.16,10.9,10.9,0,0,1,4-4.72,11.55,11.55,0,0,1,6.42-1.7,10.55,10.55,0,0,1,6,1.54A8.86,8.86,0,0,1,133.55,55a16.78,16.78,0,0,1,1,6.58l-.94,1.82h-16v-3L131,59.56l-2.56,2.51c0-.56.08-1.11.13-1.65s.08-1.09.08-1.64a8.41,8.41,0,0,0-1.15-4.65,3.93,3.93,0,0,0-3.55-1.77,4.37,4.37,0,0,0-2.71.83,5.17,5.17,0,0,0-1.67,2.3,14,14,0,0,0-.81,3.24,27.18,27.18,0,0,0-.24,3.65,17.33,17.33,0,0,0,.4,3.86,9.42,9.42,0,0,0,1.25,3.13,6.37,6.37,0,0,0,2.14,2.12,6,6,0,0,0,3.1.76,12.9,12.9,0,0,0,4.31-.71,17.44,17.44,0,0,0,3.06-1.33l1.51,2.61a8.05,8.05,0,0,1-1.1.84,18.7,18.7,0,0,1-2,1.12,13.86,13.86,0,0,1-2.82,1A15.27,15.27,0,0,1,124.71,76.16Z" transform="translate(-2.3 -5.22)"/><path class="a" d="M139.43,75.79l-.26-3,6.15-1.2L142.61,74c.1-.38.22-1,.34-1.75s.23-1.59.34-2.43a17.72,17.72,0,0,0,.16-1.93V57.63a19.56,19.56,0,0,0-.16-2c-.11-.87-.23-1.73-.37-2.58s-.24-1.47-.31-1.85L145.27,54l-6.26-1,.31-3.18h7.36l1,.94,1.09,9v6.63c0,1.53.07,3,.21,4.43s.26,2.51.37,3.24l-2.61-2.19,6.21.57-.32,3.13h-7.3c-.28,0-.77,0-1.46.06l-2.28.1Zm16.07,0-.26-3,5.59-1.25-2.45,1.88c.06-.49.14-1.1.23-1.83s.16-1.44.23-2.14.11-1.22.11-1.57V60.4a16.54,16.54,0,0,0-.37-3.61,5.7,5.7,0,0,0-1.28-2.68,3.33,3.33,0,0,0-2.63-1,5,5,0,0,0-4.18,2.29,10,10,0,0,0-1.67,6l-1.82-5a13.18,13.18,0,0,1,2.16-3.81,9.55,9.55,0,0,1,3.08-2.51,8.41,8.41,0,0,1,3.84-.89A8,8,0,0,1,161,50.5a7.08,7.08,0,0,1,2.51,3.76,20.27,20.27,0,0,1,.73,5.82v6.27c0,.87,0,1.79.13,2.76s.18,1.85.26,2.61.15,1.29.18,1.57l-2.5-1.46,6.21.57-.31,3.13h-7.05l-1.25.06-2.22.1Zm15.46,0-.27-3,5.64-1.25-2.5,1.88a17.8,17.8,0,0,0,.26-1.83c.07-.73.14-1.44.21-2.14s.1-1.22.1-1.57V60.4a17.92,17.92,0,0,0-.34-3.61,5.43,5.43,0,0,0-1.28-2.68,3.42,3.42,0,0,0-2.66-1A5,5,0,0,0,166,55.33a10.34,10.34,0,0,0-1.75,6l-1.72-5a11.69,11.69,0,0,1,3.6-5.22,8.53,8.53,0,0,1,5.48-1.88,8,8,0,0,1,4.86,1.33A7.28,7.28,0,0,1,179,54.26a19.87,19.87,0,0,1,.75,5.82v6.27c0,.87,0,1.79.11,2.76s.16,1.85.26,2.61.17,1.29.21,1.57l-2.56-1.46,6.21.57-.31,3.13h-7l-1.25.06-2.22.1Z" transform="translate(-2.3 -5.22)"/><path class="a" d="M199,76.16a12.78,12.78,0,0,1-6.76-1.67,10.56,10.56,0,0,1-4.15-4.7,16.66,16.66,0,0,1-1.41-7.1,16.8,16.8,0,0,1,1.41-7.15,10.61,10.61,0,0,1,4.15-4.7A12.78,12.78,0,0,1,199,49.17q6,0,9.16,3.63t3.1,9.89a17,17,0,0,1-1.38,7.1,10.44,10.44,0,0,1-4.12,4.7A12.81,12.81,0,0,1,199,76.16Zm0-3.44a5.15,5.15,0,0,0,3.73-1.34,7.48,7.48,0,0,0,2-3.6,19.91,19.91,0,0,0,.6-5.09,20.15,20.15,0,0,0-.6-5.14,7.58,7.58,0,0,0-2-3.6,5.91,5.91,0,0,0-7.47,0,7.57,7.57,0,0,0-2,3.57,20.12,20.12,0,0,0-.6,5.17,19.91,19.91,0,0,0,.6,5.09,7.48,7.48,0,0,0,2,3.6A5.18,5.18,0,0,0,199,72.72Z" transform="translate(-2.3 -5.22)"/><path class="a" d="M225.5,76.06a17.71,17.71,0,0,1-4.93-.63c-1.44-.42-2.65-.8-3.63-1.15l.27-7.52h3.28V69A4.75,4.75,0,0,0,220.7,70a11.53,11.53,0,0,0,.58,1.59c.24.56.47,1,.68,1.46l-1.78-2.3a6.61,6.61,0,0,0,2.43,1.54,8.23,8.23,0,0,0,3,.55,4.94,4.94,0,0,0,2.92-.81,2.87,2.87,0,0,0,1.15-2.53,3,3,0,0,0-1.49-2.61A30.37,30.37,0,0,0,224.67,65L222,63.71a14.64,14.64,0,0,1-2.53-1.64,7.54,7.54,0,0,1-1.85-2.27,6.67,6.67,0,0,1-.71-3.16,6.59,6.59,0,0,1,2.48-5.56,10,10,0,0,1,6.24-1.91,28.38,28.38,0,0,1,4.13.29,32.27,32.27,0,0,1,3.7.76l-.31,7.72L230,57.73v-2a4.34,4.34,0,0,0-.31-1.12c-.21-.58-.43-1.18-.68-1.8s-.43-1.1-.57-1.41l2.09,2.35a18.23,18.23,0,0,0-2.25-1,8.09,8.09,0,0,0-2.61-.36,4.57,4.57,0,0,0-2.84.78,2.56,2.56,0,0,0-1,2.14,2.81,2.81,0,0,0,1.51,2.46,28.41,28.41,0,0,0,3.55,1.82c.91.42,1.83.86,2.77,1.33a13.75,13.75,0,0,1,2.58,1.67,7.7,7.7,0,0,1,1.91,2.33,6.92,6.92,0,0,1,.73,3.29q0,4.06-2.56,6A11.24,11.24,0,0,1,225.5,76.06Z" transform="translate(-2.3 -5.22)"/><path class="a" d="M72.2,120.88,71.94,118l6.21-1.2-2.56,2.35c.07-.38.16-1,.29-1.78s.23-1.6.34-2.4a16,16,0,0,0,.15-1.83V91.34a13.22,13.22,0,0,0-.13-1.57c-.08-.69-.18-1.45-.28-2.27s-.23-1.56-.37-2.22l2.56,2.4-6.11-1,.26-3.08,2.14.1,2.3.11c.73,0,1.27,0,1.62,0H90.42l1.51,0c.69,0,1.44-.05,2.24-.1l2.2-.13,1,.94.36,7.1-3.18.26L94,89.14a5.09,5.09,0,0,0-.68-1.56,20.84,20.84,0,0,0-1.2-1.88l2.19,1.72q-.89-.11-2.4-.21c-1-.07-2-.1-3-.1H80.13l2.35-1.36c-.07.8-.15,1.67-.23,2.61S82.09,90.18,82,91,82,92.45,82,92.9v18.64c0,.8,0,1.7.1,2.71s.16,2,.26,2.87.19,1.61.26,2.09l-2.14-2h9.14a18.8,18.8,0,0,0,3.13-.26c1-.18,1.72-.32,2.14-.42l-2,1.83a22.51,22.51,0,0,0,1.41-2,6.55,6.55,0,0,0,.83-1.65l.73-3.39,3.08.26-.78,8.25-1,.94-2.17-.1c-.78,0-1.51-.07-2.19-.08l-1.59,0H79.45l-1.93,0c-.83,0-1.72,0-2.66.08S73,120.81,72.2,120.88ZM91,107l-.73-5.33,2.14,2.09c-.45-.07-1.05-.14-1.78-.21l-2.21-.21c-.75-.07-1.37-.1-1.86-.1H80.13V100H87.6A14.8,14.8,0,0,0,90,99.77l1.93-.34-1.62,2.14L91,96.09l2.56.26v4.38q0,3,.15,6Z" transform="translate(-2.3 -5.22)"/><path class="a" d="M113.9,121.14a9,9,0,0,1-7.54-3.52q-2.73-3.53-2.74-9.79a16.7,16.7,0,0,1,1.44-7.18,11,11,0,0,1,4-4.72,11.3,11.3,0,0,1,6.21-1.67,31.85,31.85,0,0,1,3.4.18c1.11.13,2.32.32,3.62.58s2.81.63,4.52,1.12l-2.14,3.76A28.58,28.58,0,0,0,120,98.49a21.52,21.52,0,0,0-4.2-.42,5.21,5.21,0,0,0-4.62,2.51,12.75,12.75,0,0,0-1.65,7,13.55,13.55,0,0,0,1.46,6.89,4.53,4.53,0,0,0,4.08,2.46,5.12,5.12,0,0,0,4.3-2,9.34,9.34,0,0,0,1.65-5.58l1.09,6.21a10.4,10.4,0,0,1-2.09,2.9,9.43,9.43,0,0,1-2.92,2A8.36,8.36,0,0,1,113.9,121.14ZM116,132.78l-.26-2.81,7.1-1.2L120.22,131c.07-.38.17-1,.31-1.75s.26-1.58.37-2.4a17.25,17.25,0,0,0,.16-1.91V103.34c0-.73,0-1.58-.08-2.55a25.61,25.61,0,0,0-.29-2.77l6.16-1.88c-.07.56-.14,1.31-.21,2.27s-.13,1.92-.18,2.9-.08,1.82-.08,2.56v19.52c0,1.56.07,3.06.21,4.49s.26,2.47.37,3.13l-2.62-2,5.59.57-.26,2.92H123c-.32,0-.9,0-1.75.06l-2.74.1Z" transform="translate(-2.3 -5.22)"/><path class="a" d="M143.19,121a9.13,9.13,0,0,1-5.3-1.33,6.94,6.94,0,0,1-2.66-3.81,19.89,19.89,0,0,1-.76-5.82v-7.36a13.14,13.14,0,0,0-.13-1.62c-.09-.7-.19-1.45-.31-2.27s-.24-1.56-.34-2.22l2.56,2.45-5.54-1,.32-3.19h8.14l1,.94Q140.1,97,140,98.65c-.07,1.07-.12,2.12-.15,3.13s0,1.84,0,2.5V111a8.42,8.42,0,0,0,1,4.34,3.91,3.91,0,0,0,3.68,1.72,5.13,5.13,0,0,0,3.19-1,6.79,6.79,0,0,0,2.09-2.82,10.51,10.51,0,0,0,.73-4v-6.47c0-.39,0-.92-.11-1.6s-.15-1.41-.26-2.21-.21-1.53-.31-2.2l2.5,2.35-6.1-1,.31-3.19h8.66l1.05.94c0,.84-.09,1.8-.16,2.88s-.12,2.12-.15,3.13-.06,1.84-.06,2.5v7.15a34.13,34.13,0,0,0,.24,4c.15,1.34.29,2.69.39,4l-2.56-2.6,5.85.57-.31,3.13H151.7l-.94-6.42,1,1.25a16.34,16.34,0,0,1-1.67,2.43,9.62,9.62,0,0,1-2.69,2.22A8.37,8.37,0,0,1,143.19,121Z" transform="translate(-2.3 -5.22)"/><path class="a" d="M163.29,120.88l-.27-3,6.16-1.2-2.71,2.4c.1-.38.22-1,.34-1.75s.23-1.59.34-2.43a17.92,17.92,0,0,0,.16-1.93V102.72a19.12,19.12,0,0,0-.14-2c-.08-.82-.2-1.66-.33-2.53s-.27-1.6-.37-2.19l2.66,3-6.26-1,.31-3.19H172l1.05.94c0,.63-.09,1.45-.16,2.46s-.12,2-.16,3.13,0,2,0,2.92v7.15c0,1.54.07,3,.21,4.44s.26,2.51.37,3.24l-2.61-2.19,6.21.57-.32,3.13h-7.3l-1.46,0-2.28.11ZM169,90.08a2.9,2.9,0,0,1-2.35-1,3.72,3.72,0,0,1-.84-2.5,3.81,3.81,0,0,1,.84-2.56,3,3,0,0,1,2.4-1,3,3,0,0,1,2.35.91,3.82,3.82,0,0,1,.83,2.64,3.76,3.76,0,0,1-.83,2.53A3,3,0,0,1,169,90.08Z" transform="translate(-2.3 -5.22)"/><path class="a" d="M179.68,132.78l-.26-2.81,5.53-1.2L182.23,131c.07-.38.17-1,.29-1.75s.24-1.59.37-2.43a14.55,14.55,0,0,0,.18-1.93V102.72a15.92,15.92,0,0,0-.18-2q-.19-1.31-.42-2.58c-.16-.86-.27-1.47-.34-1.86l2.77,2.82-6.32-1,.37-3.19h7.36l1,.94.68,5.85-.94-.78a9.4,9.4,0,0,1,4.88-5.74,7.82,7.82,0,0,1,3.52-.84,9.34,9.34,0,0,1,7.7,3.39q2.75,3.41,2.74,9.5a16.25,16.25,0,0,1-1.57,7.34,11.48,11.48,0,0,1-10.8,6.65,13,13,0,0,1-2.92-.34,21.8,21.8,0,0,1-3-.91l-.05-4.49a12.44,12.44,0,0,0,2.92,1.46,8.26,8.26,0,0,0,2.66.47,5.82,5.82,0,0,0,5.12-2.48q1.72-2.47,1.72-7.38,0-4.55-1.44-6.82a4.75,4.75,0,0,0-4.3-2.27,5.06,5.06,0,0,0-4.26,2.14,9.15,9.15,0,0,0-1.59,5.59v17.23a39.61,39.61,0,0,0,.24,4.43q.22,2.14.39,3.24l-2.61-2,7.2.57-.31,2.92H185c-.28,0-.72,0-1.31.06l-1.93.1Z" transform="translate(-2.3 -5.22)"/><path class="a" d="M222.9,121.25a12.78,12.78,0,0,1-6.76-1.67,10.61,10.61,0,0,1-4.15-4.7,18.71,18.71,0,0,1,0-14.25,10.56,10.56,0,0,1,4.15-4.7,12.78,12.78,0,0,1,6.76-1.67q6,0,9.16,3.63t3.11,9.89a17,17,0,0,1-1.39,7.1,10.43,10.43,0,0,1-4.12,4.7A12.81,12.81,0,0,1,222.9,121.25Zm0-3.45a5.15,5.15,0,0,0,3.73-1.33,7.58,7.58,0,0,0,2-3.6,19.91,19.91,0,0,0,.6-5.09,20.15,20.15,0,0,0-.6-5.14,7.48,7.48,0,0,0-2-3.6,5.9,5.9,0,0,0-7.46,0,7.45,7.45,0,0,0-2,3.57,20.12,20.12,0,0,0-.6,5.17,19.91,19.91,0,0,0,.6,5.09,7.51,7.51,0,0,0,2,3.6A5.13,5.13,0,0,0,222.9,117.8Z" transform="translate(-2.3 -5.22)"/><path class="a" d="M44.82,33.28l-.19-1.86L49,30.53,47.42,32c.06-.21.13-.57.22-1.09s.18-1.06.27-1.65a9.51,9.51,0,0,0,.14-1.33V19.27A12.38,12.38,0,0,0,48,18c-.07-.53-.14-1.08-.23-1.65s-.18-1.05-.26-1.44L49,16.67l-4.27-.74.19-2h5.59l.74.7c0,.39-.06.93-.1,1.61s-.07,1.41-.1,2.16,0,1.43,0,2.05v6.29c0,1,0,2.05.11,3.11s.16,1.82.23,2.29l-1.43-1.44,4.38.39-.27,2H49.09l-1.12,0-1.57.08Zm4.12-23.17a2.1,2.1,0,0,1-1.67-.66,2.53,2.53,0,0,1-.58-1.75,2.65,2.65,0,0,1,.58-1.8,2.08,2.08,0,0,1,1.67-.68,2.14,2.14,0,0,1,1.67.64,2.64,2.64,0,0,1,.58,1.84,2.63,2.63,0,0,1-.56,1.75A2.11,2.11,0,0,1,48.94,10.11Z" transform="translate(-2.3 -5.22)"/><path class="a" d="M56.7,33.28l-.19-1.86,4.34-.89L59.3,32c.05-.21.12-.57.21-1.09s.18-1.06.28-1.65a9.19,9.19,0,0,0,.13-1.33V19.27a12.39,12.39,0,0,0-.11-1.38c-.08-.58-.17-1.16-.28-1.74s-.18-1-.23-1.27l1.55,1.79-4.27-.74.2-2h4.81l.74.7.54,5.82L62,18.18a8.07,8.07,0,0,1,1.49-2.48,6.27,6.27,0,0,1,2.16-1.55,6.53,6.53,0,0,1,2.71-.55,6.62,6.62,0,0,1,4.16,1.11,5.6,5.6,0,0,1,1.9,3.12,20.1,20.1,0,0,1,.5,4.74v4.15c0,1,0,1.9.14,2.83s.17,1.66.25,2.18l-1.4-1.05,4.39.39-.27,2h-5l-.85,0-1.54.08-1.49.08L69,31.42l3.88-.93-1.43.89c.08-.26.16-.58.25-.95s.17-.78.23-1.22a8.38,8.38,0,0,0,.1-1.32V22.53a16,16,0,0,0-.31-3.24,5.14,5.14,0,0,0-1.2-2.5,3.35,3.35,0,0,0-2.6-1,4.31,4.31,0,0,0-3.71,1.86,7.92,7.92,0,0,0-1.34,4.73v4.31c0,1,0,2.05.12,3.11s.15,1.82.23,2.29l-1.44-1.44,4.39.39-.27,2H61l-1.13,0-1.57.08Z" transform="translate(-2.3 -5.22)"/><path class="a" d="M80.72,33.28l-.19-1.86,4.35-.89L83.32,32c.06-.21.13-.57.22-1.09s.18-1.06.27-1.65A9.51,9.51,0,0,0,84,27.89V19.27a12.38,12.38,0,0,0-.1-1.3c-.07-.53-.14-1.08-.23-1.65s-.18-1.05-.26-1.44l1.52,1.79-4.27-.74.19-2h5.59l.74.7c0,.39-.06.93-.1,1.61s-.07,1.41-.1,2.16,0,1.43,0,2.05v6.29c0,1,0,2.05.11,3.11s.16,1.82.23,2.29l-1.43-1.44,4.38.39-.27,2H85l-1.12,0-1.57.08Zm4.12-23.17a2.1,2.1,0,0,1-1.67-.66,2.53,2.53,0,0,1-.58-1.75,2.65,2.65,0,0,1,.58-1.8,2.08,2.08,0,0,1,1.67-.68,2.14,2.14,0,0,1,1.67.64,2.64,2.64,0,0,1,.58,1.84,2.63,2.63,0,0,1-.56,1.75A2.11,2.11,0,0,1,84.84,10.11Z" transform="translate(-2.3 -5.22)"/><path class="a" d="M101.68,33.47a8.93,8.93,0,0,1-4.91-1.26,7.73,7.73,0,0,1-2.93-3.51,13,13,0,0,1-1-5.16,12.66,12.66,0,0,1,1-5.18,7.83,7.83,0,0,1,3-3.5,9,9,0,0,1,4.93-1.26,10.28,10.28,0,0,1,3,.39c.85.26,1.86.6,3,1l-.39,4.62-2.14-.12V18.18a4.34,4.34,0,0,0-.21-1c-.14-.47-.28-.92-.41-1.33l1.21,1.24c-.7-.36-1.4-.68-2.08-.95a5.38,5.38,0,0,0-2-.41,4.26,4.26,0,0,0-3.16,1.18,7,7,0,0,0-1.73,3,12.67,12.67,0,0,0-.54,3.69,12.4,12.4,0,0,0,.52,3.63A6.18,6.18,0,0,0,98.5,30a4.4,4.4,0,0,0,3.14,1.09,9.88,9.88,0,0,0,2.78-.39,19.12,19.12,0,0,0,2.74-1.05l1,1.79A12.24,12.24,0,0,1,105,33,11.36,11.36,0,0,1,101.68,33.47Z" transform="translate(-2.3 -5.22)"/><path class="a" d="M111.27,33.28l-.2-1.86,4.35-.89L113.87,32c0-.21.12-.57.21-1.09s.18-1.06.27-1.65a9.51,9.51,0,0,0,.14-1.33V19.27a10.14,10.14,0,0,0-.1-1.3c-.06-.53-.14-1.08-.23-1.65s-.17-1.05-.25-1.44l1.51,1.79-4.27-.74.2-2h5.59l.73.7c0,.39-.06.93-.09,1.61s-.08,1.41-.1,2.16,0,1.43,0,2.05v6.29c0,1,0,2.05.12,3.11s.15,1.82.23,2.29l-1.44-1.44,4.39.39-.27,2h-4.93l-1.13,0-1.57.08Zm4.11-23.17a2.12,2.12,0,0,1-1.67-.66,2.58,2.58,0,0,1-.58-1.75,2.7,2.7,0,0,1,.58-1.8,2.1,2.1,0,0,1,1.67-.68,2.13,2.13,0,0,1,1.67.64,2.64,2.64,0,0,1,.58,1.84,2.57,2.57,0,0,1-.56,1.75A2.09,2.09,0,0,1,115.38,10.11Z" transform="translate(-2.3 -5.22)"/><path class="a" d="M128.93,33.47a6,6,0,0,1-4.12-1.33,4.56,4.56,0,0,1-1.51-3.59,4.61,4.61,0,0,1,1.3-3.36,6.89,6.89,0,0,1,3.9-1.77l6.79-1.12v1.9L129,25.4a3.17,3.17,0,0,0-1.83.89,2.41,2.41,0,0,0-.66,1.71,3.27,3.27,0,0,0,.76,2.31,2.74,2.74,0,0,0,2.15.84A5.33,5.33,0,0,0,133,29.83a5.1,5.1,0,0,0,1.81-3.26V21.09a7.53,7.53,0,0,0-.93-4.17,3.16,3.16,0,0,0-2.8-1.38,11.9,11.9,0,0,0-3.49.59,4.51,4.51,0,0,0-1.24.58l1.2-1.67L127.06,18l0,1.59-2.25.12-.39-5.16c.78-.21,1.56-.38,2.33-.51s1.56-.23,2.33-.29,1.55-.1,2.33-.1q3.45,0,4.85,1.89T137.7,22v4.77a19.37,19.37,0,0,0,.21,3.05c.14.87.27,1.54.37,2L137,30.64l3.8.43-.23,2h-4.85l-.78-4.39.7-.12a4,4,0,0,1-1,2.24,7.69,7.69,0,0,1-2.44,1.9A7.14,7.14,0,0,1,128.93,33.47Z" transform="translate(-2.3 -5.22)"/><path class="a" d="M150.24,33.67c-1.74,0-2.9-.47-3.48-1.4a7.59,7.59,0,0,1-.87-4V14.65l1.24,1.28h-4.5l-.12-1.55,1.24-.45,1.5-.52,1.22-.43-1.32,1.28a5.31,5.31,0,0,0,.53-.83c.22-.4.44-.86.67-1.36s.46-1,.67-1.38.34-.71.42-.89l1.4.16V28.43a3.86,3.86,0,0,0,.46,2.06,2,2,0,0,0,1.79.73,4.35,4.35,0,0,0,1.77-.4,6.87,6.87,0,0,0,1.65-1.07l1,1.67a11.73,11.73,0,0,1-2.73,1.69A6.79,6.79,0,0,1,150.24,33.67Zm-2.06-17.74v-2h6.4l-.19,2Z" transform="translate(-2.3 -5.22)"/><path class="a" d="M158.19,33.28,158,31.42l4.34-.89L160.79,32c.05-.21.12-.57.22-1.09s.18-1.06.27-1.65a9.19,9.19,0,0,0,.13-1.33V19.27a12,12,0,0,0-.09-1.3q-.1-.79-.24-1.65c-.09-.57-.17-1.05-.25-1.44l1.51,1.79-4.26-.74.19-2h5.59l.74.7c0,.39-.06.93-.1,1.61s-.07,1.41-.1,2.16,0,1.43,0,2.05v6.29c0,1,0,2.05.12,3.11s.15,1.82.23,2.29l-1.43-1.44,4.38.39-.27,2h-4.93l-1.12,0-1.58.08Zm4.12-23.17a2.09,2.09,0,0,1-1.67-.66,2.54,2.54,0,0,1-.59-1.75,2.65,2.65,0,0,1,.59-1.8,2.07,2.07,0,0,1,1.67-.68,2.1,2.1,0,0,1,1.66.64,2.64,2.64,0,0,1,.59,1.84A2.58,2.58,0,0,1,164,9.45,2.07,2.07,0,0,1,162.31,10.11Z" transform="translate(-2.3 -5.22)"/><path class="a" d="M178.49,33.09l-5.12-13.35a24.7,24.7,0,0,0-1.05-2.41L171.15,15,173,16.4l-3.65-.47.19-2H178l.11,2-3.68.43.89-1.36c.23.8.45,1.59.66,2.35s.44,1.51.7,2.23l3.92,11-.9,0,3.73-11.07a13.78,13.78,0,0,0,.6-2.25c.14-.77.31-1.54.49-2.29l1,1.44-4.31-.62.19-1.83h8l.12,2-3.5.39L187.77,15c-.47,1.06-.9,2-1.3,2.93s-.79,1.83-1.15,2.82l-4.46,12.38Z" transform="translate(-2.3 -5.22)"/><path class="a" d="M197.62,33.47a6,6,0,0,1-4.11-1.33A4.56,4.56,0,0,1,192,28.55a4.61,4.61,0,0,1,1.3-3.36,6.83,6.83,0,0,1,3.9-1.77L204,22.3v1.9l-6.33,1.2a3.17,3.17,0,0,0-1.82.89,2.41,2.41,0,0,0-.66,1.71,3.27,3.27,0,0,0,.76,2.31,2.74,2.74,0,0,0,2.15.84,5.33,5.33,0,0,0,3.59-1.32,5.13,5.13,0,0,0,1.8-3.26V21.09a7.53,7.53,0,0,0-.93-4.17,3.14,3.14,0,0,0-2.79-1.38,11.76,11.76,0,0,0-3.49.59,4.59,4.59,0,0,0-1.25.58L196.23,15,195.76,18l0,1.59-2.25.12-.39-5.16c.78-.21,1.55-.38,2.33-.51s1.55-.23,2.33-.29,1.55-.1,2.33-.1q3.45,0,4.85,1.89T206.4,22v4.77a19.37,19.37,0,0,0,.21,3.05c.14.87.26,1.54.37,2l-1.28-1.17,3.8.43-.23,2h-4.85l-.78-4.39.7-.12a4,4,0,0,1-1,2.24,7.62,7.62,0,0,1-2.45,1.9A7.08,7.08,0,0,1,197.62,33.47Z" transform="translate(-2.3 -5.22)"/></svg>